<svg xmlns="http://www.w3.org/2000/svg" xmlns:xlink="http://www.w3.org/1999/xlink" width="144" height="144" viewBox="0 0 144 144">
  <defs>
    <linearGradient id="linear-gradient" x1="0.5" y1="1" x2="0.5" gradientUnits="objectBoundingBox">
      <stop offset="0" stop-color="gray" stop-opacity="0.251"/>
      <stop offset="0.54" stop-color="gray" stop-opacity="0.122"/>
      <stop offset="1" stop-color="gray" stop-opacity="0.102"/>
    </linearGradient>
    <linearGradient id="linear-gradient-6" xlink:href="#linear-gradient"/>
  </defs>
  <g id="Group_44" data-name="Group 44" transform="translate(-602 -602)">
    <g id="Group_3" data-name="Group 3" transform="translate(333 43)">
      <circle id="Ellipse_5" data-name="Ellipse 5" cx="72" cy="72" r="72" transform="translate(269 559)" fill="rgba(138,166,188,0.09)"/>
    </g>
    <g id="undraw_secure_server_s9u8" transform="translate(609 618)">
      <g id="Group_7" data-name="Group 7" transform="translate(63.793)" opacity="0.8">
        <rect id="Rectangle_27" data-name="Rectangle 27" width="57.624" height="64.315" fill="url(#linear-gradient)"/>
      </g>
      <rect id="Rectangle_28" data-name="Rectangle 28" width="55.719" height="19.974" transform="translate(64.745 42.941)" fill="#fff"/>
      <rect id="Rectangle_29" data-name="Rectangle 29" width="2.159" height="10.235" transform="translate(69.318 47.678)" fill="#64ffda"/>
      <g id="Group_8" data-name="Group 8" transform="translate(73.581 47.678)" opacity="0.7">
        <rect id="Rectangle_30" data-name="Rectangle 30" width="2.159" height="10.235" fill="#64ffda"/>
      </g>
      <g id="Group_9" data-name="Group 9" transform="translate(77.844 47.678)" opacity="0.6">
        <rect id="Rectangle_31" data-name="Rectangle 31" width="2.159" height="10.235" fill="#64ffda"/>
      </g>
      <g id="Group_10" data-name="Group 10" transform="translate(82.107 47.678)" opacity="0.5">
        <rect id="Rectangle_32" data-name="Rectangle 32" width="2.159" height="10.235" fill="#64ffda"/>
      </g>
      <g id="Group_11" data-name="Group 11" transform="translate(86.369 47.678)" opacity="0.5">
        <rect id="Rectangle_33" data-name="Rectangle 33" width="2.159" height="10.235" fill="#64ffda"/>
      </g>
      <g id="Group_12" data-name="Group 12" transform="translate(90.631 47.678)" opacity="0.4">
        <rect id="Rectangle_34" data-name="Rectangle 34" width="2.159" height="10.235" fill="#64ffda"/>
      </g>
      <g id="Group_13" data-name="Group 13" transform="translate(94.895 47.678)" opacity="0.3">
        <rect id="Rectangle_35" data-name="Rectangle 35" width="2.159" height="10.235" fill="#64ffda"/>
      </g>
      <circle id="Ellipse_6" data-name="Ellipse 6" cx="5.21" cy="5.21" r="5.21" transform="translate(107.366 47.52)" fill="#1b73bb"/>
      <rect id="Rectangle_36" data-name="Rectangle 36" width="55.719" height="19.974" transform="translate(64.745 22.189)" fill="#fff"/>
      <rect id="Rectangle_37" data-name="Rectangle 37" width="2.159" height="10.235" transform="translate(69.318 26.926)" fill="#64ffda"/>
      <g id="Group_14" data-name="Group 14" transform="translate(73.581 26.926)" opacity="0.7">
        <rect id="Rectangle_38" data-name="Rectangle 38" width="2.159" height="10.235" fill="#64ffda"/>
      </g>
      <g id="Group_15" data-name="Group 15" transform="translate(77.844 26.926)" opacity="0.6">
        <rect id="Rectangle_39" data-name="Rectangle 39" width="2.159" height="10.235" fill="#64ffda"/>
      </g>
      <g id="Group_16" data-name="Group 16" transform="translate(82.107 26.926)" opacity="0.5">
        <rect id="Rectangle_40" data-name="Rectangle 40" width="2.159" height="10.235" fill="#64ffda"/>
      </g>
      <g id="Group_17" data-name="Group 17" transform="translate(86.369 26.926)" opacity="0.5">
        <rect id="Rectangle_41" data-name="Rectangle 41" width="2.159" height="10.235" fill="#64ffda"/>
      </g>
      <g id="Group_18" data-name="Group 18" transform="translate(90.631 26.926)" opacity="0.4">
        <rect id="Rectangle_42" data-name="Rectangle 42" width="2.159" height="10.235" fill="#64ffda"/>
      </g>
      <g id="Group_19" data-name="Group 19" transform="translate(94.895 26.926)" opacity="0.3">
        <rect id="Rectangle_43" data-name="Rectangle 43" width="2.159" height="10.235" fill="#64ffda"/>
      </g>
      <circle id="Ellipse_7" data-name="Ellipse 7" cx="5.21" cy="5.21" r="5.21" transform="translate(107.366 26.769)" fill="#1b73bb"/>
      <rect id="Rectangle_44" data-name="Rectangle 44" width="55.719" height="19.974" transform="translate(64.745 1.437)" fill="#fff"/>
      <rect id="Rectangle_45" data-name="Rectangle 45" width="2.159" height="10.235" transform="translate(69.318 6.176)" fill="#64ffda"/>
      <g id="Group_20" data-name="Group 20" transform="translate(73.581 6.176)" opacity="0.7">
        <rect id="Rectangle_46" data-name="Rectangle 46" width="2.159" height="10.235" fill="#64ffda"/>
      </g>
      <g id="Group_21" data-name="Group 21" transform="translate(77.844 6.176)" opacity="0.6">
        <rect id="Rectangle_47" data-name="Rectangle 47" width="2.159" height="10.235" fill="#64ffda"/>
      </g>
      <g id="Group_22" data-name="Group 22" transform="translate(82.107 6.176)" opacity="0.5">
        <rect id="Rectangle_48" data-name="Rectangle 48" width="2.159" height="10.235" fill="#64ffda"/>
      </g>
      <g id="Group_23" data-name="Group 23" transform="translate(86.369 6.176)" opacity="0.5">
        <rect id="Rectangle_49" data-name="Rectangle 49" width="2.159" height="10.235" fill="#64ffda"/>
      </g>
      <g id="Group_24" data-name="Group 24" transform="translate(90.631 6.176)" opacity="0.4">
        <rect id="Rectangle_50" data-name="Rectangle 50" width="2.159" height="10.235" fill="#64ffda"/>
      </g>
      <g id="Group_25" data-name="Group 25" transform="translate(94.895 6.176)" opacity="0.3">
        <rect id="Rectangle_51" data-name="Rectangle 51" width="2.159" height="10.235" fill="#64ffda"/>
      </g>
      <circle id="Ellipse_8" data-name="Ellipse 8" cx="5.617" cy="5.617" r="5.617" transform="translate(106.959 5.611)" fill="url(#linear-gradient)"/>
      <circle id="Ellipse_9" data-name="Ellipse 9" cx="5.617" cy="5.617" r="5.617" transform="translate(106.959 26.502)" fill="url(#linear-gradient)"/>
      <circle id="Ellipse_10" data-name="Ellipse 10" cx="5.617" cy="5.617" r="5.617" transform="translate(106.959 47.252)" fill="url(#linear-gradient)"/>
      <circle id="Ellipse_11" data-name="Ellipse 11" cx="5.21" cy="5.21" r="5.21" transform="translate(107.366 6.018)" fill="#1b73bb"/>
      <g id="Group_26" data-name="Group 26" transform="translate(4.636 46.042)" opacity="0.8">
        <path id="Path_5" data-name="Path 5" d="M277.191,469.653H200.07V420.415a2.215,2.215,0,0,1,2.215-2.215h72.689a2.215,2.215,0,0,1,2.215,2.215Z" transform="translate(-200.07 -418.2)" fill="url(#linear-gradient)"/>
      </g>
      <path id="Path_6" data-name="Path 6" d="M42.865,334.85h70.565a2.215,2.215,0,0,1,2.215,2.215V385.4h-75V337.065a2.215,2.215,0,0,1,2.215-2.215Z" transform="translate(-34.951 -287.902)" fill="#fff"/>
      <rect id="Rectangle_52" data-name="Rectangle 52" width="70.167" height="46.022" transform="translate(8.113 49.888)" fill="#f5f5f5"/>
      <rect id="Rectangle_53" data-name="Rectangle 53" width="69.87" height="41.405" transform="translate(8.382 52.123)" fill="#e0e0e0" opacity="0.8"/>
      <rect id="Rectangle_54" data-name="Rectangle 54" width="69.87" height="2.2" transform="translate(8.382 49.923)" fill="#f5f5f5"/>
      <circle id="Ellipse_12" data-name="Ellipse 12" cx="0.533" cy="0.533" r="0.533" transform="translate(9.347 50.456)" fill="#ff5252"/>
      <circle id="Ellipse_13" data-name="Ellipse 13" cx="0.533" cy="0.533" r="0.533" transform="translate(10.814 50.456)" fill="#ff0"/>
      <circle id="Ellipse_14" data-name="Ellipse 14" cx="0.533" cy="0.533" r="0.533" transform="translate(12.282 50.456)" fill="#69f0ae"/>
      <g id="Group_27" data-name="Group 27" transform="translate(0 92.634)" opacity="0.8">
        <path id="Path_7" data-name="Path 7" d="M250.915,758.678c-4.293.325-78.019.195-80.6,0-3.378-1.628-3.32-7.943-3.32-7.943l33.81-.226.114,1.922H215.4l.561-1.7h37.474S254.178,756.53,250.915,758.678Z" transform="translate(-167 -750.51)" fill="url(#linear-gradient-6)"/>
      </g>
      <path id="Path_8" data-name="Path 8" d="M256,755.75H219.263a1.122,1.122,0,0,1-.857,1.866H204.385a1.122,1.122,0,0,1-.857-1.866h-32.9s-.056,5.485,3.279,6.9c2.545.17,75.369.28,79.609,0C256.741,760.782,256,755.75,256,755.75Z" transform="translate(-170.121 -662.382)" fill="#f5f5f5"/>
      <circle id="Ellipse_15" data-name="Ellipse 15" cx="0.453" cy="0.453" r="0.453" transform="translate(7.688 94.102)" fill="#e0e0e0"/>
      <circle id="Ellipse_16" data-name="Ellipse 16" cx="0.453" cy="0.453" r="0.453" transform="translate(9.046 94.102)" fill="#e0e0e0"/>
      <circle id="Ellipse_17" data-name="Ellipse 17" cx="0.453" cy="0.453" r="0.453" transform="translate(10.403 94.102)" fill="#e0e0e0"/>
      <g id="Group_28" data-name="Group 28" transform="translate(27.408 53.75)" opacity="0.7">
        <path id="Path_9" data-name="Path 9" d="M376.1,473.18l-13.608,8.374s0,17.273,13.608,26.694c13.608-9.422,13.608-26.694,13.608-26.694Z" transform="translate(-362.49 -473.18)" fill="url(#linear-gradient)"/>
      </g>
      <path id="Path_10" data-name="Path 10" d="M380.836,480.23,368,488.133s0,16.3,12.843,25.191c12.843-8.89,12.843-25.191,12.843-25.191Z" transform="translate(-339.819 -425.491)" fill="#1b73bb"/>
      <path id="Path_11" data-name="Path 11" d="M459.76,480.23l-.22.14v32.808l.22.154c12.843-8.89,12.843-25.191,12.843-25.191Z" transform="translate(-418.525 -425.491)" opacity="0.05"/>
      <path id="Path_12" data-name="Path 12" d="M389.907,493.85l-11.357,6.991s0,14.419,11.357,22.284c11.357-7.866,11.357-22.284,11.357-22.284Z" transform="translate(-348.89 -437.201)" fill="#1b73bb"/>
      <path id="Path_13" data-name="Path 13" d="M459.55,494.24v29.269c11.357-7.865,11.357-22.284,11.357-22.284Z" transform="translate(-418.533 -437.537)" opacity="0.08"/>
      <path id="Path_14" data-name="Path 14" d="M239,128.4V99.38h23.975" transform="translate(-205.491 -85.446)" fill="none" stroke="#3ad29f" stroke-miterlimit="10" stroke-width="1" stroke-dasharray="3 1"/>
      <path id="Path_15" data-name="Path 15" d="M186,65.4V36.38h23.975" transform="translate(-159.922 -31.279)" fill="none" stroke="#3ad29f" stroke-miterlimit="10" stroke-width="1" stroke-dasharray="3 1"/>
      <path id="Path_16" data-name="Path 16" d="M638.618,477.38v22.713H626" transform="translate(-538.232 -410.449)" fill="none" stroke="#3ad29f" stroke-miterlimit="10" stroke-width="1" stroke-dasharray="3 1"/>
      <path id="Path_17" data-name="Path 17" d="M693.972,513.38v25.15H680" transform="translate(-586.015 -442.62)" fill="none" stroke="#3ad29f" stroke-miterlimit="10" stroke-width="1" stroke-dasharray="3 1"/>
    </g>
  </g>
</svg>
