<svg xmlns="http://www.w3.org/2000/svg" width="144" height="144" viewBox="0 0 144 144">
  <g id="Group_45" data-name="Group 45" transform="translate(-951 -602)">
    <g id="Group_31" data-name="Group 31" transform="translate(349)">
      <g id="Group_3" data-name="Group 3" transform="translate(333 43)">
        <circle id="Ellipse_5" data-name="Ellipse 5" cx="72" cy="72" r="72" transform="translate(269 559)" fill="rgba(138,166,188,0.09)"/>
      </g>
    </g>
    <g id="undraw_team_ih79" transform="translate(971 621)">
      <path id="Path_55" data-name="Path 55" d="M270,269.989a15.3,15.3,0,0,0,8.448-2.528c-.566-3.094-2.721-3.271-2.721-3.271H263.849s-2.032.167-2.669,3.014A15.3,15.3,0,0,0,270,269.989Z" transform="translate(-254.149 -238.125)" fill="#1b73bb"/>
      <circle id="Ellipse_38" data-name="Ellipse 38" cx="6.813" cy="6.813" r="6.813" transform="translate(8.881 9.302)" fill="#333"/>
      <path id="Path_56" data-name="Path 56" d="M98.18,164.57h4.753v3.8a2.376,2.376,0,0,1-2.376,2.376h0a2.376,2.376,0,0,1-2.376-2.376v-3.8Z" transform="translate(-84.88 -142.276)" opacity="0.1"/>
      <path id="Path_57" data-name="Path 57" d="M98.642,163.27h3.846a.454.454,0,0,1,.454.454v3.349a2.376,2.376,0,0,1-2.376,2.376h0a2.376,2.376,0,0,1-2.376-2.376v-3.349A.454.454,0,0,1,98.642,163.27Z" transform="translate(-84.889 -141.153)" fill="#be7c5e"/>
      <path id="Path_58" data-name="Path 58" d="M307.53,245.96a6.841,6.841,0,0,0,4.753.014v-.584H307.53Z" transform="translate(-294.221 -221.872)" opacity="0.1"/>
      <circle id="Ellipse_39" data-name="Ellipse 39" cx="6.813" cy="6.813" r="6.813" transform="translate(8.881 10.782)" fill="#be7c5e"/>
      <path id="Path_59" data-name="Path 59" d="M254.5,126.575a1.19,1.19,0,0,1,.444-.771,1.265,1.265,0,0,1,.708-.091,19.235,19.235,0,0,0,5.581-.775,4.993,4.993,0,0,0,2.845-1.412c.677-.844-.206-3.5-1.237-3.809-.677-.207-1.463.179-2.105-.125a4.087,4.087,0,0,1-.742-.587,4.463,4.463,0,0,0-1.783-.725,3.593,3.593,0,0,0-2.226-.068,16.234,16.234,0,0,0-1.451.982c-.977.542-2.167.29-3.286.287-.378,0-.829.076-.979.423a1.729,1.729,0,0,0-.009.76c.033.813-.638,1.445-1.2,2.032s-1.093,1.424-.738,2.153c.135.278.383.488.524.763a5.329,5.329,0,0,1,.209,1.58,3.974,3.974,0,0,0,.443,1.138c.417.813,2.513,5.188,3.476,4.076.466-.542.542-2.108.73-2.812Q254.09,128.076,254.5,126.575Z" transform="translate(-242.93 -111.79)" fill="#333"/>
      <ellipse id="Ellipse_40" data-name="Ellipse 40" cx="0.634" cy="1.188" rx="0.634" ry="1.188" transform="translate(10.213 16.158)" fill="#be7c5e"/>
      <path id="Path_60" data-name="Path 60" d="M538.356,522.239a15.3,15.3,0,0,0,8.442-2.528c-.566-3.094-2.721-3.271-2.721-3.271H532.2s-2.032.167-2.669,3.014A15.3,15.3,0,0,0,538.356,522.239Z" transform="translate(-486.147 -456.204)" fill="#1b73bb"/>
      <circle id="Ellipse_43" data-name="Ellipse 43" cx="7.418" cy="7.418" r="7.418" transform="translate(44.628 42.865)" fill="#f55f44"/>
      <path id="Path_61" data-name="Path 61" d="M366.53,416.8h4.753v3.8a2.376,2.376,0,0,1-2.376,2.376h0a2.376,2.376,0,0,1-2.376-2.376v-3.8Z" transform="translate(-316.878 -360.338)" opacity="0.1"/>
      <path id="Path_62" data-name="Path 62" d="M366.992,415.5h3.846a.454.454,0,0,1,.454.454V419.3a2.376,2.376,0,0,1-2.376,2.376h0a2.376,2.376,0,0,1-2.376-2.376v-3.349a.454.454,0,0,1,.454-.454Z" transform="translate(-316.887 -359.214)" fill="#fda57d"/>
      <path id="Path_63" data-name="Path 63" d="M575.88,498.19a6.841,6.841,0,0,0,4.753.014v-.584H575.88Z" transform="translate(-526.218 -439.933)" opacity="0.1"/>
      <circle id="Ellipse_44" data-name="Ellipse 44" cx="6.813" cy="6.813" r="6.813" transform="translate(45.233 44.95)" fill="#fda57d"/>
      <circle id="Ellipse_45" data-name="Ellipse 45" cx="2.742" cy="2.742" r="2.742" transform="translate(49.294 39.996)" fill="#f55f44"/>
      <circle id="Ellipse_46" data-name="Ellipse 46" cx="1.8" cy="1.8" r="1.8" transform="translate(50.236 38.238)" fill="#f55f44"/>
      <path id="Path_64" data-name="Path 64" d="M573.618,376a2.742,2.742,0,0,1-1.429-3.506c-.019.038-.038.077-.056.116a2.742,2.742,0,0,0,5,2.245c.018-.039.034-.079.05-.119a2.742,2.742,0,0,1-3.57,1.264Z" transform="translate(-522.771 -331.754)" fill="#f55f44"/>
      <path id="Path_65" data-name="Path 65" d="M557.67,397.179s2.87,5.825,10.973,2.438l-1.886-2.957-3.342-1.2Z" transform="translate(-510.475 -351.613)" opacity="0.1"/>
      <path id="Path_66" data-name="Path 66" d="M557.67,396.539s2.87,5.825,10.973,2.438l-1.886-2.957-3.342-1.2Z" transform="translate(-510.475 -351.059)" fill="#f55f44"/>
      <path id="Path_67" data-name="Path 67" d="M574,391.185a33.846,33.846,0,0,1,5.308,0A24.851,24.851,0,0,1,574,391.185Z" transform="translate(-524.593 -347.827)" fill="#333"/>
      <path id="Path_68" data-name="Path 68" d="M593.856,353.232a1.8,1.8,0,0,0-.406.031h.1a1.8,1.8,0,0,1,.271,3.567,1.8,1.8,0,0,0,.032-3.6Z" transform="translate(-541.408 -315.104)" fill="#f55f44"/>
      <ellipse id="Ellipse_47" data-name="Ellipse 47" cx="0.634" cy="1.188" rx="0.634" ry="1.188" transform="translate(44.598 50.568)" fill="#fda57d"/>
      <ellipse id="Ellipse_48" data-name="Ellipse 48" cx="0.634" cy="1.188" rx="0.634" ry="1.188" transform="translate(58.224 50.568)" fill="#fda57d"/>
      <path id="Path_69" data-name="Path 69" d="M345.22,332.625l1.329-.685.3,1.1-.814.554Z" transform="translate(-298.455 -286.974)" fill="#f55f44"/>
      <path id="Path_70" data-name="Path 70" d="M532.813,188.56s-1.742,8.583-2.693,8.108c0,0,9.171,7.922,17.269,0,0,0-1.426-6.049-3.486-8.108Z" transform="translate(-486.657 -172.74)" fill="#333"/>
      <path id="Path_71" data-name="Path 71" d="M538.246,264.319a15.3,15.3,0,0,0,8.448-2.528c-.566-3.094-2.721-3.271-2.721-3.271H532.089s-2.032.167-2.669,3.014A15.3,15.3,0,0,0,538.246,264.319Z" transform="translate(-486.052 -233.223)" fill="#1b73bb"/>
      <circle id="Ellipse_51" data-name="Ellipse 51" cx="6.813" cy="6.813" r="6.813" transform="translate(45.218 8.532)" fill="#333"/>
      <path id="Path_72" data-name="Path 72" d="M366.42,158.88h4.753v3.8a2.376,2.376,0,0,1-2.372,2.376h0a2.376,2.376,0,0,1-2.376-2.376v-3.8Z" transform="translate(-316.783 -137.357)" opacity="0.1"/>
      <path id="Path_73" data-name="Path 73" d="M366.908,157.58h3.846a.454.454,0,0,1,.454.454v3.349a2.376,2.376,0,0,1-2.372,2.376h0a2.376,2.376,0,0,1-2.376-2.376v-3.35A.454.454,0,0,1,366.908,157.58Z" transform="translate(-316.817 -136.233)" fill="#be7c5e"/>
      <path id="Path_74" data-name="Path 74" d="M575.77,240.27a6.841,6.841,0,0,0,4.753.014V239.7H575.77Z" transform="translate(-526.123 -216.953)" opacity="0.1"/>
      <circle id="Ellipse_52" data-name="Ellipse 52" cx="6.813" cy="6.813" r="6.813" transform="translate(45.218 10.01)" fill="#be7c5e"/>
      <path id="Path_75" data-name="Path 75" d="M545.3,145.423h12.991s-1.109-5.245-6.02-4.911S545.3,145.423,545.3,145.423Z" transform="translate(-499.781 -131.188)" fill="#333"/>
      <ellipse id="Ellipse_53" data-name="Ellipse 53" cx="0.634" cy="1.188" rx="0.634" ry="1.188" transform="translate(44.725 15.344)" fill="#be7c5e"/>
      <ellipse id="Ellipse_54" data-name="Ellipse 54" cx="0.634" cy="1.188" rx="0.634" ry="1.188" transform="translate(58.033 15.344)" fill="#be7c5e"/>
      <path id="Path_76" data-name="Path 76" d="M545.3,146.723h12.991s-1.109-5.245-6.02-4.911S545.3,146.723,545.3,146.723Z" transform="translate(-499.781 -132.312)" opacity="0.1"/>
      <path id="Path_77" data-name="Path 77" d="M814.514,263.8a15.3,15.3,0,0,0,8.448-2.528c-.568-3.1-2.721-3.273-2.721-3.273H808.359s-2.032.167-2.669,3.014a15.3,15.3,0,0,0,8.824,2.787Z" transform="translate(-724.897 -232.774)" fill="#1b73bb"/>
      <circle id="Ellipse_57" data-name="Ellipse 57" cx="7.418" cy="7.418" r="7.418" transform="translate(82.038 7.856)" fill="#72351c"/>
      <path id="Path_78" data-name="Path 78" d="M642.68,158.36h4.753v3.8a2.376,2.376,0,0,1-2.376,2.38h0a2.376,2.376,0,0,1-2.376-2.376V158.36Z" transform="translate(-555.619 -136.908)" opacity="0.1"/>
      <path id="Path_79" data-name="Path 79" d="M643.112,157.06h3.846a.454.454,0,0,1,.454.454v3.349a2.376,2.376,0,0,1-2.376,2.376h0a2.376,2.376,0,0,1-2.376-2.376v-3.349a.454.454,0,0,1,.454-.454Z" transform="translate(-555.602 -135.784)" fill="#fda57d"/>
      <path id="Path_80" data-name="Path 80" d="M852,239.75a6.841,6.841,0,0,0,4.753.014v-.584H852Z" transform="translate(-764.934 -216.503)" opacity="0.1"/>
      <circle id="Ellipse_58" data-name="Ellipse 58" cx="6.813" cy="6.813" r="6.813" transform="translate(82.643 9.94)" fill="#fda57d"/>
      <path id="Path_81" data-name="Path 81" d="M833.82,138.739s2.871,5.825,10.973,2.438l-1.886-2.957-3.342-1.2Z" transform="translate(-749.216 -128.182)" opacity="0.1"/>
      <path id="Path_82" data-name="Path 82" d="M833.82,138.109s2.871,5.825,10.973,2.438l-1.886-2.957-3.342-1.2Z" transform="translate(-749.216 -127.638)" fill="#72351c"/>
      <path id="Path_83" data-name="Path 83" d="M832.723,116.162a3.934,3.934,0,0,1,.975-1.586c1.34-1.325,3.537-1.6,4.664-3.116a.882.882,0,0,1-.406,1.244c1.084-.007,2.331-.1,2.941-.99a2.02,2.02,0,0,1-.34,2.132,2.04,2.04,0,0,1,2.04,1.649,1.9,1.9,0,0,1-.882,1.605,4.849,4.849,0,0,1-1.779.665C838.119,118.171,831.536,119.852,832.723,116.162Z" transform="translate(-748.145 -106.085)" fill="#72351c"/>
      <path id="Path_84" data-name="Path 84" d="M833,195.89h-.18l-3.514,3.131a6.319,6.319,0,0,0-5.871,0l-3.685-3-.371.046A6.812,6.812,0,1,0,833,195.893Zm-6.822,4.328c-1.325,0-2.4-.271-2.4-.6s1.074-.6,2.4-.6,2.4.271,2.4.6-1.074.6-2.4.6Z" transform="translate(-736.733 -179.077)" fill="#72351c"/>
      <ellipse id="Ellipse_59" data-name="Ellipse 59" cx="0.634" cy="1.188" rx="0.634" ry="1.188" transform="translate(82.007 15.558)" fill="#fda57d"/>
      <ellipse id="Ellipse_60" data-name="Ellipse 60" cx="0.634" cy="1.188" rx="0.634" ry="1.188" transform="translate(95.633 15.558)" fill="#fda57d"/>
      <path id="Path_85" data-name="Path 85" d="M269.131,514.649a15.3,15.3,0,0,0,8.446-2.528c-.566-3.094-2.721-3.272-2.721-3.272H262.969s-2.032.167-2.669,3.014A15.3,15.3,0,0,0,269.131,514.649Z" transform="translate(-253.389 -449.642)" fill="#1b73bb"/>
      <circle id="Ellipse_63" data-name="Ellipse 63" cx="7.418" cy="7.418" r="7.418" transform="translate(8.162 41.837)" fill="#333"/>
      <path id="Path_86" data-name="Path 86" d="M97.34,409.21h4.753v3.8a2.376,2.376,0,0,1-2.376,2.376h0a2.376,2.376,0,0,1-2.376-2.376v-3.8Z" transform="translate(-84.154 -353.776)" opacity="0.1"/>
      <path id="Path_87" data-name="Path 87" d="M97.794,407.9h3.846a.454.454,0,0,1,.454.454v3.351a2.376,2.376,0,0,1-2.376,2.376h0a2.376,2.376,0,0,1-2.377-2.376v-3.353a.454.454,0,0,1,.454-.454Z" transform="translate(-84.154 -352.644)" fill="#fdb797"/>
      <path id="Path_88" data-name="Path 88" d="M306.69,490.574a6.841,6.841,0,0,0,4.753.014V490H306.69Z" transform="translate(-293.494 -433.346)" opacity="0.1"/>
      <circle id="Ellipse_64" data-name="Ellipse 64" cx="6.813" cy="6.813" r="6.813" transform="translate(8.767 43.922)" fill="#fdb797"/>
      <path id="Path_89" data-name="Path 89" d="M288.48,389.579s2.871,5.825,10.973,2.438l-1.886-2.957-3.342-1.2Z" transform="translate(-277.751 -345.042)" opacity="0.1"/>
      <path id="Path_90" data-name="Path 90" d="M288.48,388.949s2.871,5.825,10.973,2.438l-1.886-2.957-3.342-1.2Z" transform="translate(-277.751 -344.497)" fill="#333"/>
      <path id="Path_91" data-name="Path 91" d="M287.383,366.992a3.935,3.935,0,0,1,.975-1.586c1.34-1.325,3.537-1.6,4.664-3.116a.882.882,0,0,1-.406,1.244c1.084-.007,2.331-.1,2.941-.99a2.391,2.391,0,0,0,1.7,3.781,1.9,1.9,0,0,1-.882,1.605,4.913,4.913,0,0,1-1.78.671C292.777,369,286.2,370.685,287.383,366.992Z" transform="translate(-276.68 -322.936)" fill="#333"/>
      <ellipse id="Ellipse_65" data-name="Ellipse 65" cx="0.634" cy="1.188" rx="0.634" ry="1.188" transform="translate(8.131 49.54)" fill="#fdb797"/>
      <ellipse id="Ellipse_66" data-name="Ellipse 66" cx="0.634" cy="1.188" rx="0.634" ry="1.188" transform="translate(21.757 49.54)" fill="#fdb797"/>
      <path id="Path_113" data-name="Path 113" d="M0,15.367Z" transform="translate(74.792 35.967)" fill="#f5f5f5"/>
      <path id="Path_92" data-name="Path 92" d="M818.826,527.5a15.294,15.294,0,0,0,8.448-2.528c-.566-3.094-2.721-3.271-2.721-3.271H812.669s-2.032.167-2.669,3.014A15.3,15.3,0,0,0,818.826,527.5Z" transform="translate(-728.623 -460.751)" fill="#1b73bb"/>
      <path id="Path_93" data-name="Path 93" d="M647,422.06h4.753v3.8a2.376,2.376,0,0,1-2.376,2.376h0A2.376,2.376,0,0,1,647,425.862Z" transform="translate(-559.354 -364.885)" opacity="0.1"/>
      <path id="Path_94" data-name="Path 94" d="M647.454,420.76H651.3a.454.454,0,0,1,.454.454v3.349a2.376,2.376,0,0,1-2.376,2.376h0A2.376,2.376,0,0,1,647,424.563v-3.349A.454.454,0,0,1,647.454,420.76Z" transform="translate(-559.354 -363.762)" fill="#fdb797"/>
      <path id="Path_95" data-name="Path 95" d="M856.35,503.45a6.841,6.841,0,0,0,4.753.014v-.584H856.35Z" transform="translate(-768.694 -444.481)" opacity="0.1"/>
      <circle id="Ellipse_69" data-name="Ellipse 69" cx="6.813" cy="6.813" r="6.813" transform="translate(83.227 45.663)" fill="#fdb797"/>
      <ellipse id="Ellipse_70" data-name="Ellipse 70" cx="0.634" cy="1.188" rx="0.634" ry="1.188" transform="translate(82.734 50.996)" fill="#fdb797"/>
      <ellipse id="Ellipse_71" data-name="Ellipse 71" cx="0.634" cy="1.188" rx="0.634" ry="1.188" transform="translate(96.042 50.996)" fill="#fdb797"/>
      <rect id="Rectangle_92" data-name="Rectangle 92" width="2.914" height="1.458" rx="0.729" transform="translate(85.889 52.508)" fill="none" stroke="#333" stroke-miterlimit="10" stroke-width="2"/>
      <rect id="Rectangle_93" data-name="Rectangle 93" width="2.914" height="1.458" rx="0.729" transform="translate(94.192 53.964) rotate(180)" fill="none" stroke="#333" stroke-miterlimit="10" stroke-width="2"/>
      <path id="Path_96" data-name="Path 96" d="M864,459.008a3.687,3.687,0,0,1,2.642,0" transform="translate(-775.308 -406.36)" fill="none" stroke="#333" stroke-miterlimit="10" stroke-width="2"/>
      <path id="Path_97" data-name="Path 97" d="M908.72,422.7l1.672,3.884S912.436,424.007,908.72,422.7Z" transform="translate(-813.97 -375.163)" fill="#858585"/>
      <line id="Line_1" data-name="Line 1" y1="2.228" x2="2.495" transform="translate(94.192 51.008)" fill="none" stroke="#333" stroke-linecap="round" stroke-linejoin="round" stroke-width="2"/>
      <path id="Path_98" data-name="Path 98" d="M824.951,422.7l-1.672,3.884S821.236,424.007,824.951,422.7Z" transform="translate(-739.619 -375.163)" fill="#858585"/>
      <line id="Line_2" data-name="Line 2" x1="2.529" y1="2.228" transform="translate(83.36 51.008)" fill="none" stroke="#333" stroke-linecap="round" stroke-linejoin="round" stroke-width="2"/>
      <path id="Path_99" data-name="Path 99" d="M283.493,654.144c0,5.66-3.693,11.96-8.249,11.96S267,659.8,267,654.144s3.693-8.534,8.248-8.534S283.493,648.486,283.493,654.144Z" transform="translate(-259.181 -567.876)" fill="#fdd835"/>
      <path id="Path_100" data-name="Path 100" d="M270,775.189a15.3,15.3,0,0,0,8.448-2.528c-.566-3.094-2.721-3.271-2.721-3.271H263.849s-2.032.167-2.669,3.014A15.3,15.3,0,0,0,270,775.189Z" transform="translate(-254.149 -674.888)" fill="#1b73bb"/>
      <path id="Path_101" data-name="Path 101" d="M98.18,669.74h4.753v3.8a2.376,2.376,0,0,1-2.376,2.376h0a2.376,2.376,0,0,1-2.376-2.376v-3.8Z" transform="translate(-84.88 -579.013)" opacity="0.1"/>
      <path id="Path_102" data-name="Path 102" d="M98.642,668.44h3.846a.454.454,0,0,1,.454.454v3.349a2.376,2.376,0,0,1-2.376,2.376h0a2.376,2.376,0,0,1-2.376-2.376v-3.349A.454.454,0,0,1,98.642,668.44Z" transform="translate(-84.889 -577.89)" fill="#fdb797"/>
      <path id="Path_103" data-name="Path 103" d="M307.53,751.13a6.841,6.841,0,0,0,4.753.013v-.584H307.53Z" transform="translate(-294.221 -658.609)" opacity="0.1"/>
      <circle id="Ellipse_74" data-name="Ellipse 74" cx="6.813" cy="6.813" r="6.813" transform="translate(8.881 79.215)" fill="#fdb797"/>
      <ellipse id="Ellipse_75" data-name="Ellipse 75" cx="0.634" cy="1.188" rx="0.634" ry="1.188" transform="translate(8.388 84.548)" fill="#fdb797"/>
      <ellipse id="Ellipse_76" data-name="Ellipse 76" cx="0.634" cy="1.188" rx="0.634" ry="1.188" transform="translate(21.696 84.548)" fill="#fdb797"/>
      <path id="Path_104" data-name="Path 104" d="M280.57,655.156s3.851,5.271,12.684,3.471c0,0,.986-1.2-1.414-4.885S282.755,650.657,280.57,655.156Z" transform="translate(-270.913 -572.824)" opacity="0.1"/>
      <path id="Path_105" data-name="Path 105" d="M280.57,654.526s3.851,5.271,12.684,3.471c0,0,.986-1.2-1.414-4.885S282.755,650.027,280.57,654.526Z" transform="translate(-270.913 -572.28)" fill="#fdd835"/>
      <path id="Path_106" data-name="Path 106" d="M553.739,663.7c0,5.112-3.672,7.628-8.442,7.628s-8.827-2.516-8.827-7.628,3.866-9.256,8.635-9.256S553.739,658.58,553.739,663.7Z" transform="translate(-492.147 -575.51)" fill="#333"/>
      <path id="Path_107" data-name="Path 107" d="M545.314,788.469a15.3,15.3,0,0,0,8.449-2.528c-.566-3.094-2.721-3.272-2.721-3.272H539.159s-2.032.167-2.669,3.014A15.3,15.3,0,0,0,545.314,788.469Z" transform="translate(-492.164 -686.369)" fill="#1b73bb"/>
      <path id="Path_108" data-name="Path 108" d="M373.464,683h4.753v3.8a2.376,2.376,0,0,1-2.381,2.38h0a2.376,2.376,0,0,1-2.376-2.376V683Z" transform="translate(-322.869 -590.477)" opacity="0.1"/>
      <path id="Path_109" data-name="Path 109" d="M373.917,681.721h3.846a.454.454,0,0,1,.454.454v3.349a2.376,2.376,0,0,1-2.38,2.376h0a2.376,2.376,0,0,1-2.376-2.376v-3.35a.454.454,0,0,1,.454-.454Z" transform="translate(-322.869 -589.371)" fill="#fda57d"/>
      <path id="Path_110" data-name="Path 110" d="M582.84,764.42a6.841,6.841,0,0,0,4.753.014v-.584H582.84Z" transform="translate(-532.236 -670.099)" opacity="0.1"/>
      <circle id="Ellipse_79" data-name="Ellipse 79" cx="6.813" cy="6.813" r="6.813" transform="translate(46.176 81.014)" fill="#fda57d"/>
      <path id="Path_111" data-name="Path 111" d="M542.48,673.181a12.218,12.218,0,0,0,7.451-4.628s4.243,4.671,7.2,4.156a2.577,2.577,0,0,0,0-3.6c-1.714-1.8-3.043-4.071-5.313-3.771s-5.057.428-6.256,1.5S542.48,673.181,542.48,673.181Z" transform="translate(-497.343 -584.909)" opacity="0.1"/>
      <path id="Path_112" data-name="Path 112" d="M542.48,672.551a12.218,12.218,0,0,0,7.451-4.628s4.243,4.671,7.2,4.156a2.577,2.577,0,0,0,0-3.6c-1.714-1.8-3.043-4.071-5.313-3.771s-5.052.423-6.25,1.506S542.48,672.551,542.48,672.551Z" transform="translate(-497.343 -584.365)" fill="#333"/>
      <ellipse id="Ellipse_80" data-name="Ellipse 80" cx="0.634" cy="1.188" rx="0.634" ry="1.188" transform="translate(45.539 86.633)" fill="#fda57d"/>
      <ellipse id="Ellipse_81" data-name="Ellipse 81" cx="0.634" cy="1.188" rx="0.634" ry="1.188" transform="translate(59.166 86.633)" fill="#fda57d"/>
    </g>
  </g>
</svg>
