<?xml version="1.0" encoding="UTF-8"?>
<svg width="170px" height="29px" viewBox="0 0 170 29" version="1.1" xmlns="http://www.w3.org/2000/svg" xmlns:xlink="http://www.w3.org/1999/xlink">
    <!-- Generator: Sketch 54.1 (76490) - https://sketchapp.com -->
    <title>Group 9</title>
    <desc>Created with Sketch.</desc>
    <g id="Mentory---Web" stroke="none" stroke-width="1" fill="none" fill-rule="evenodd">
        <g id="Home" transform="translate(-701.000000, -901.000000)" fill="#646565" fill-rule="nonzero">
            <g id="Companies" transform="translate(0.000000, 783.000000)">
                <g id="Content" transform="translate(267.000000, 42.000000)">
                    <g id="logos" transform="translate(0.500000, 68.000000)">
                        <g id="Group-9" transform="translate(433.666667, 8.000000)">
                            <path d="M77.9430601,9.77043856 C77.9430601,4.64413717 74.2247855,0.748391355 66.5642473,0.748391355 L51.1501332,0.748391355 L51.1501332,27.6904801 L58.4032961,27.6904801 L58.4032961,6.57036164 L66.6091527,6.57036164 C69.6463172,6.57036164 70.7334581,8.12929239 70.7334581,9.93389642 C70.7334581,11.7791217 69.6003362,13.296215 66.5642473,13.296215 L59.5366869,13.296215 L69.5105254,27.6904801 L77.7610184,27.6904801 C77.7610184,27.6904801 70.9604051,18.0119258 71.006655,18.0119258 C75.2223845,17.1109616 77.9430601,14.4443119 77.9430601,9.77043856" id="Fill-1"></path>
                            <polygon id="Fill-3" points="38.97153 27.6904801 46.2786919 27.6904801 46.2786919 0.748391355 38.97153 0.748391355"></polygon>
                            <polyline id="Fill-5" points="15.4088351 0.748391355 0 27.6904801 8.27857599 27.6904801 10.774917 23.1788891 23.1813223 23.1788891 20.0995007 17.5201846 13.9061197 17.5201846 18.4890198 9.23693469 18.5815072 9.23693469 28.8844384 27.6904801 37.3477163 27.6904801 21.939154 0.748391355"></polyline>
                            <path d="M98.6859368,22.0305594 L88.5964937,22.0305594 L88.5964937,16.5355544 L98.6859368,16.5355544 C100.490584,16.5355544 101.879619,17.683641 101.879619,19.2425576 C101.879619,20.8418519 100.490584,22.0305594 98.6859368,22.0305594 L98.6859368,22.0305594 Z M88.5964937,6.44747355 L98.5011897,6.44747355 C99.9816372,6.44747355 101.138709,7.47272457 101.138709,8.8263478 C101.138709,10.1797278 99.9816372,11.2052221 98.4539735,11.2052221 L88.5964937,11.2052221 L88.5964937,6.44747355 Z M104.70161,13.7066886 C107.062969,12.5586021 108.312826,10.7133935 108.312826,8.00639022 C108.312826,3.65947183 104.655767,0.748391355 98.5011897,0.748391355 L81.1906876,0.748391355 L81.1906876,27.6904801 L99.1948835,27.6904801 C105.488089,27.6904801 109.607428,24.6969417 109.607428,20.1447299 C109.607428,16.9879784 107.61776,14.6091041 104.70161,13.7066886 L104.70161,13.7066886 Z" id="Fill-6"></path>
                            <path d="M132.115899,15.8931678 C132.115899,20.0086521 130.001903,22.2890216 125.822679,22.2890216 C121.688956,22.2890216 119.576867,20.0086521 119.576867,15.8931678 L119.576867,0.748391355 L112.043149,0.748391355 L112.043149,15.3984677 C112.043149,23.7763042 116.957462,28.4388715 125.822679,28.4388715 C134.687897,28.4388715 139.647983,23.7763042 139.647983,15.3984677 L139.647983,0.748391355 L132.115899,0.748391355" id="Fill-7"></path>
                            <path d="M159.284165,11.4166733 C152.279578,9.88077481 150.753274,9.73449876 150.753274,7.92919619 C150.753274,6.53218604 152.506062,5.85325831 155.457464,5.85325831 C159.376618,5.85325831 163.550978,6.73854855 165.925229,8.05380172 L168.276776,2.49038669 C165.234015,1.03796894 160.760413,0 155.550191,0 C147.75592,0 143.375044,3.48747714 143.375044,8.17816099 C143.375044,13.2256697 146.647298,15.2772283 154.166396,16.7311236 C160.019417,17.8922205 161.267813,18.6171981 161.267813,20.0937489 C161.267813,21.6978604 159.653159,22.4188979 156.472264,22.4188979 C151.860255,22.4188979 147.686169,21.4102334 144.344165,19.7615496 L142.083703,25.5736832 C145.726592,27.3174218 151.169315,28.4388715 156.656077,28.4388715 C164.311942,28.4388715 168.87663,25.2414839 168.87663,19.8861551 C168.87663,15.5889884 165.788463,12.8291976 159.284165,11.4166733" id="Fill-8"></path>
                        </g>
                    </g>
                </g>
            </g>
        </g>
    </g>
</svg>