<?xml version="1.0" encoding="UTF-8"?>
<svg width="39px" height="45px" viewBox="0 0 39 45" version="1.1" xmlns="http://www.w3.org/2000/svg" xmlns:xlink="http://www.w3.org/1999/xlink">
    <!-- Generator: Sketch 54.1 (76490) - https://sketchapp.com -->
    <title>apple</title>
    <desc>Created with Sketch.</desc>
    <g id="Mentory---Web" stroke="none" stroke-width="1" fill="none" fill-rule="evenodd">
        <g id="Home" transform="translate(-268.000000, -893.000000)" fill="#646565" fill-rule="nonzero">
            <g id="Companies" transform="translate(0.000000, 783.000000)">
                <g id="Content" transform="translate(267.000000, 42.000000)">
                    <g id="logos" transform="translate(0.500000, 68.000000)">
                        <g id="apple">
                            <path d="M33.0673492,23.5055193 C33.0069285,17.9030794 38.0132425,15.2162134 38.236874,15.0827212 C35.4239439,11.2801367 31.0420396,10.7592146 29.4805477,10.6989919 C25.7513928,10.350184 22.2040612,12.7272097 20.3114714,12.7272097 C18.4236516,12.7272097 15.5031614,10.7505743 12.4103881,10.8025023 C8.34573924,10.8583185 4.59787821,12.9858131 2.50494602,16.3486941 C-1.71814352,23.1183486 1.42345274,33.1471144 5.53954338,38.6374036 C7.55082344,41.3248744 9.94913275,44.3432676 13.0980244,44.235437 C16.130377,44.1236319 17.2770611,42.422794 20.9431764,42.422794 C24.6091982,42.422794 25.6398109,44.235437 28.8487491,44.1797937 C32.1118415,44.1238047 34.1791464,41.4409133 36.1765839,38.7452342 C38.4862263,35.6274778 39.4372445,32.6089982 39.4933628,32.4540781 C39.4208767,32.4234915 33.1303888,30.197325 33.0673492,23.5055193 Z M27.0376244,7.06437427 C28.708921,5.19124931 29.8369925,2.59251416 29.5292771,0 C27.1218954,0.0905500695 24.203837,1.48137495 22.4766091,3.35026617 C20.9268086,5.00816191 19.5701485,7.65424576 19.9337016,10.1949183 C22.6212073,10.3886332 25.3645506,8.9332655 27.0376244,7.06437427 Z" id="Shape"></path>
                        </g>
                    </g>
                </g>
            </g>
        </g>
    </g>
</svg>