<?xml version="1.0" encoding="UTF-8"?>
<svg width="188px" height="44px" viewBox="0 0 188 44" version="1.1" xmlns="http://www.w3.org/2000/svg" xmlns:xlink="http://www.w3.org/1999/xlink">
    <!-- Generator: Sketch 54.1 (76490) - https://sketchapp.com -->
    <title>Group 5</title>
    <desc>Created with Sketch.</desc>
    <g id="Mentory---Web" stroke="none" stroke-width="1" fill="none" fill-rule="evenodd">
        <g id="Home" transform="translate(-984.000000, -893.000000)" fill-rule="nonzero">
            <g id="Companies" transform="translate(0.000000, 783.000000)">
                <g id="Content" transform="translate(267.000000, 42.000000)">
                    <g id="logos" transform="translate(0.500000, 68.000000)">
                        <g id="Group-5" transform="translate(717.000000, 0.000000)">
                            <path d="M59.0802797,15.2834107 L59.0802797,6.9079373 L67.8397562,6.9079373 C77.2104334,6.9079373 80.9800376,11.4599624 82.504306,15.2834107 C83.5304405,17.8880502 83.5304405,20.1414922 83.5304405,20.4692163 L83.5304405,20.6335298 C83.5027071,22.3227085 82.8648397,34.0539687 67.8397562,34.0061191 L59.0802797,34.0062651 L59.0802797,20.6561003 L59.0802797,15.2834107 Z M176.556678,9.38618182 C174.683609,5.18896552 171.368406,5.3153605 169.50387,9.38618182 C167.594535,13.5554107 159.451592,31.8366395 158.565191,33.8282633 L149.699048,22.6973793 C149.699048,22.6973793 151.972117,22.3227085 153.829186,20.6804765 C155.049454,19.5537555 156.102255,17.8645768 156.102255,15.2834107 L156.102255,15.2608401 C156.102255,15.2608401 156.878789,6.9079373 145.817444,6.9079373 L137.030234,6.9079373 L137.030234,15.2834107 L137.030234,20.6561003 L137.030234,34.0061191 L143.323574,34.0061191 L143.323574,23.1189969 L151.16785,34.0061191 L158.485191,34.0061191 L158.708125,34.0061191 L164.765732,34.0061191 L167.191334,28.317442 L178.429747,28.317442 L181.074017,34.0061191 L187.464424,34.0061191 C187.464424,34.0061191 178.429747,13.5824953 176.556678,9.38618182 L176.556678,9.38618182 Z M168.95347,23.9342445 L173.030274,14.1422445 L176.997212,23.9342445 L168.95347,23.9342445 Z M109.366203,20.6561003 L109.366203,34.0061191 L115.658477,34.0061191 L115.658477,21.9471348 L125.943288,34.0061191 L134.120364,34.0061191 L122.172617,20.6561003 L121.147549,19.5068088 L125.193421,15.2834107 L133.26063,6.9079373 L125.609421,6.9079373 L118.236613,15.2834107 L115.658477,18.2166771 L115.658477,15.2834107 L115.658477,6.9079373 L109.366203,6.9079373 L109.366203,15.2834107 L109.366203,20.6561003 Z M87.4109781,20.6561003 L87.4109781,34.0061191 L103.932597,34.0061191 L103.932597,29.4071473 L93.7309852,29.4071473 L93.7309852,22.0879749 L103.59873,22.0879749 L103.59873,20.6561003 L103.59873,17.4664326 L93.7309852,17.4664326 L93.7309852,15.2834107 L93.7309852,11.5538558 L103.96033,11.5538558 L103.96033,6.93141066 L87.4387115,6.93141066 L87.4387115,15.2834107 L87.4109781,20.6561003 Z M77.0152331,20.6804765 L77.0152331,20.4692163 C77.0152331,18.2166771 76.4616325,16.5274984 75.6018982,15.2608401 C72.5245614,10.708815 65.4834869,11.5538558 65.4834869,11.5538558 L65.4834869,15.2834107 L65.4834869,20.6561003 L65.4834869,29.4071473 C65.4834869,29.4071473 76.877633,30.7686019 77.0152331,20.6804765 L77.0152331,20.6804765 Z" id="Fill-1" fill="#646565"></path>
                            <path d="M143.323574,15.2834107 L143.323574,19.3424953 L144.820109,19.3424953 C149.699048,19.3424953 150.000915,15.7998245 150.000915,15.2834107 L150.000915,15.2138934 C150.000915,15.2138934 150.224915,11.224326 144.820109,11.2487022 L143.323574,11.2487022 L143.323574,15.2834107 Z" id="Path" fill="#FFFFFF"></path>
                            <path d="M0,43.577289 L0,35.6198219 L32.6155033,19.3302169 L14.9856168,10.5015273 L14.9856168,23.1843611 L6.90560775,26.9157216 L6.90560775,2.54315737 C6.90560775,0.180473981 8.66774307,-0.565256426 10.7253454,0.429652665 C12.781881,1.42365893 29.5434998,9.61134545 35.9947071,12.8642107 C42.8992482,16.3454897 42.3115142,23.058869 35.9947071,26.0444991 C29.6768333,29.0283235 0,43.577289 0,43.577289" id="Fill-3" fill="#646565"></path>
                        </g>
                    </g>
                </g>
            </g>
        </g>
    </g>
</svg>