<?xml version="1.0" encoding="UTF-8"?>
<svg width="347px" height="167px" viewBox="0 0 347 167" version="1.1" xmlns="http://www.w3.org/2000/svg" xmlns:xlink="http://www.w3.org/1999/xlink">
    <!-- Generator: Sketch 54.1 (76490) - https://sketchapp.com -->
    <title>Group 29</title>
    <desc>Created with Sketch.</desc>
    <g id="Mentory---Web" stroke="none" stroke-width="1" fill="none" fill-rule="evenodd" opacity="0.699999988">
        <g id="Home" transform="translate(-1087.000000, -1147.000000)" fill="#C9C6E2">
            <g id="Featured-Mentors" transform="translate(0.000000, 1076.000000)">
                <g id="Group-29" transform="translate(1087.500000, 71.138318)">
                    <g id="Group-26">
                        <circle id="Oval" cx="146" cy="2" r="2"></circle>
                        <circle id="Oval-Copy-14" cx="146" cy="20" r="2"></circle>
                        <circle id="Oval-Copy-16" cx="146" cy="38" r="2"></circle>
                        <circle id="Oval-Copy-15" cx="146" cy="56" r="2"></circle>
                        <circle id="Oval-Copy-20" cx="146" cy="74" r="2"></circle>
                        <circle id="Oval-Copy-19" cx="146" cy="92" r="2"></circle>
                        <circle id="Oval-Copy-18" cx="146" cy="110" r="2"></circle>
                        <circle id="Oval-Copy-17" cx="146" cy="128" r="2"></circle>
                        <circle id="Oval-Copy-22" cx="146" cy="146" r="2"></circle>
                        <circle id="Oval-Copy-21" cx="146" cy="164" r="2"></circle>
                        <circle id="Oval" cx="164" cy="2" r="2"></circle>
                        <circle id="Oval-Copy-14" cx="164" cy="20" r="2"></circle>
                        <circle id="Oval-Copy-16" cx="164" cy="38" r="2"></circle>
                        <circle id="Oval-Copy-15" cx="164" cy="56" r="2"></circle>
                        <circle id="Oval-Copy-20" cx="164" cy="74" r="2"></circle>
                        <circle id="Oval-Copy-19" cx="164" cy="92" r="2"></circle>
                        <circle id="Oval-Copy-18" cx="164" cy="110" r="2"></circle>
                        <circle id="Oval-Copy-17" cx="164" cy="128" r="2"></circle>
                        <circle id="Oval-Copy-22" cx="164" cy="146" r="2"></circle>
                        <circle id="Oval-Copy-21" cx="164" cy="164" r="2"></circle>
                        <circle id="Oval" cx="110" cy="2" r="2"></circle>
                        <circle id="Oval-Copy-14" cx="110" cy="20" r="2"></circle>
                        <circle id="Oval-Copy-16" cx="110" cy="38" r="2"></circle>
                        <circle id="Oval-Copy-15" cx="110" cy="56" r="2"></circle>
                        <circle id="Oval-Copy-20" cx="110" cy="74" r="2"></circle>
                        <circle id="Oval-Copy-19" cx="110" cy="92" r="2"></circle>
                        <circle id="Oval-Copy-18" cx="110" cy="110" r="2"></circle>
                        <circle id="Oval-Copy-17" cx="110" cy="128" r="2"></circle>
                        <circle id="Oval-Copy-22" cx="110" cy="146" r="2"></circle>
                        <circle id="Oval-Copy-21" cx="110" cy="164" r="2"></circle>
                        <circle id="Oval" cx="128" cy="2" r="2"></circle>
                        <circle id="Oval-Copy-14" cx="128" cy="20" r="2"></circle>
                        <circle id="Oval-Copy-16" cx="128" cy="38" r="2"></circle>
                        <circle id="Oval-Copy-15" cx="128" cy="56" r="2"></circle>
                        <circle id="Oval-Copy-20" cx="128" cy="74" r="2"></circle>
                        <circle id="Oval-Copy-19" cx="128" cy="92" r="2"></circle>
                        <circle id="Oval-Copy-18" cx="128" cy="110" r="2"></circle>
                        <circle id="Oval-Copy-17" cx="128" cy="128" r="2"></circle>
                        <circle id="Oval-Copy-22" cx="128" cy="146" r="2"></circle>
                        <circle id="Oval-Copy-21" cx="128" cy="164" r="2"></circle>
                        <circle id="Oval" cx="74" cy="2" r="2"></circle>
                        <circle id="Oval-Copy-14" cx="74" cy="20" r="2"></circle>
                        <circle id="Oval-Copy-16" cx="74" cy="38" r="2"></circle>
                        <circle id="Oval-Copy-15" cx="74" cy="56" r="2"></circle>
                        <circle id="Oval-Copy-20" cx="74" cy="74" r="2"></circle>
                        <circle id="Oval-Copy-19" cx="74" cy="92" r="2"></circle>
                        <circle id="Oval-Copy-18" cx="74" cy="110" r="2"></circle>
                        <circle id="Oval-Copy-17" cx="74" cy="128" r="2"></circle>
                        <circle id="Oval-Copy-22" cx="74" cy="146" r="2"></circle>
                        <circle id="Oval-Copy-21" cx="74" cy="164" r="2"></circle>
                        <circle id="Oval" cx="92" cy="2" r="2"></circle>
                        <circle id="Oval-Copy-14" cx="92" cy="20" r="2"></circle>
                        <circle id="Oval-Copy-16" cx="92" cy="38" r="2"></circle>
                        <circle id="Oval-Copy-15" cx="92" cy="56" r="2"></circle>
                        <circle id="Oval-Copy-20" cx="92" cy="74" r="2"></circle>
                        <circle id="Oval-Copy-19" cx="92" cy="92" r="2"></circle>
                        <circle id="Oval-Copy-18" cx="92" cy="110" r="2"></circle>
                        <circle id="Oval-Copy-17" cx="92" cy="128" r="2"></circle>
                        <circle id="Oval-Copy-22" cx="92" cy="146" r="2"></circle>
                        <circle id="Oval-Copy-21" cx="92" cy="164" r="2"></circle>
                        <circle id="Oval" cx="38" cy="2" r="2"></circle>
                        <circle id="Oval-Copy-14" cx="38" cy="20" r="2"></circle>
                        <circle id="Oval-Copy-16" cx="38" cy="38" r="2"></circle>
                        <circle id="Oval-Copy-15" cx="38" cy="56" r="2"></circle>
                        <circle id="Oval-Copy-20" cx="38" cy="74" r="2"></circle>
                        <circle id="Oval-Copy-19" cx="38" cy="92" r="2"></circle>
                        <circle id="Oval-Copy-18" cx="38" cy="110" r="2"></circle>
                        <circle id="Oval-Copy-17" cx="38" cy="128" r="2"></circle>
                        <circle id="Oval-Copy-22" cx="38" cy="146" r="2"></circle>
                        <circle id="Oval-Copy-21" cx="38" cy="164" r="2"></circle>
                        <circle id="Oval" cx="56" cy="2" r="2"></circle>
                        <circle id="Oval-Copy-14" cx="56" cy="20" r="2"></circle>
                        <circle id="Oval-Copy-16" cx="56" cy="38" r="2"></circle>
                        <circle id="Oval-Copy-15" cx="56" cy="56" r="2"></circle>
                        <circle id="Oval-Copy-20" cx="56" cy="74" r="2"></circle>
                        <circle id="Oval-Copy-19" cx="56" cy="92" r="2"></circle>
                        <circle id="Oval-Copy-18" cx="56" cy="110" r="2"></circle>
                        <circle id="Oval-Copy-17" cx="56" cy="128" r="2"></circle>
                        <circle id="Oval-Copy-22" cx="56" cy="146" r="2"></circle>
                        <circle id="Oval-Copy-21" cx="56" cy="164" r="2"></circle>
                        <circle id="Oval" cx="2" cy="2" r="2"></circle>
                        <circle id="Oval-Copy-14" cx="2" cy="20" r="2"></circle>
                        <circle id="Oval-Copy-16" cx="2" cy="38" r="2"></circle>
                        <circle id="Oval-Copy-15" cx="2" cy="56" r="2"></circle>
                        <circle id="Oval-Copy-20" cx="2" cy="74" r="2"></circle>
                        <circle id="Oval-Copy-19" cx="2" cy="92" r="2"></circle>
                        <circle id="Oval-Copy-18" cx="2" cy="110" r="2"></circle>
                        <circle id="Oval-Copy-17" cx="2" cy="128" r="2"></circle>
                        <circle id="Oval-Copy-22" cx="2" cy="146" r="2"></circle>
                        <circle id="Oval-Copy-21" cx="2" cy="164" r="2"></circle>
                        <circle id="Oval" cx="20" cy="2" r="2"></circle>
                        <circle id="Oval-Copy-14" cx="20" cy="20" r="2"></circle>
                        <circle id="Oval-Copy-16" cx="20" cy="38" r="2"></circle>
                        <circle id="Oval-Copy-15" cx="20" cy="56" r="2"></circle>
                        <circle id="Oval-Copy-20" cx="20" cy="74" r="2"></circle>
                        <circle id="Oval-Copy-19" cx="20" cy="92" r="2"></circle>
                        <circle id="Oval-Copy-18" cx="20" cy="110" r="2"></circle>
                        <circle id="Oval-Copy-17" cx="20" cy="128" r="2"></circle>
                        <circle id="Oval-Copy-22" cx="20" cy="146" r="2"></circle>
                        <circle id="Oval-Copy-21" cx="20" cy="164" r="2"></circle>
                    </g>
                    <g id="Group-26-Copy" transform="translate(180.000000, 0.000000)">
                        <circle id="Oval" cx="146" cy="2" r="2"></circle>
                        <circle id="Oval-Copy-14" cx="146" cy="20" r="2"></circle>
                        <circle id="Oval-Copy-16" cx="146" cy="38" r="2"></circle>
                        <circle id="Oval-Copy-15" cx="146" cy="56" r="2"></circle>
                        <circle id="Oval-Copy-20" cx="146" cy="74" r="2"></circle>
                        <circle id="Oval-Copy-19" cx="146" cy="92" r="2"></circle>
                        <circle id="Oval-Copy-18" cx="146" cy="110" r="2"></circle>
                        <circle id="Oval-Copy-17" cx="146" cy="128" r="2"></circle>
                        <circle id="Oval-Copy-22" cx="146" cy="146" r="2"></circle>
                        <circle id="Oval-Copy-21" cx="146" cy="164" r="2"></circle>
                        <circle id="Oval" cx="164" cy="2" r="2"></circle>
                        <circle id="Oval-Copy-14" cx="164" cy="20" r="2"></circle>
                        <circle id="Oval-Copy-16" cx="164" cy="38" r="2"></circle>
                        <circle id="Oval-Copy-15" cx="164" cy="56" r="2"></circle>
                        <circle id="Oval-Copy-20" cx="164" cy="74" r="2"></circle>
                        <circle id="Oval-Copy-19" cx="164" cy="92" r="2"></circle>
                        <circle id="Oval-Copy-18" cx="164" cy="110" r="2"></circle>
                        <circle id="Oval-Copy-17" cx="164" cy="128" r="2"></circle>
                        <circle id="Oval-Copy-22" cx="164" cy="146" r="2"></circle>
                        <circle id="Oval-Copy-21" cx="164" cy="164" r="2"></circle>
                        <circle id="Oval" cx="110" cy="2" r="2"></circle>
                        <circle id="Oval-Copy-14" cx="110" cy="20" r="2"></circle>
                        <circle id="Oval-Copy-16" cx="110" cy="38" r="2"></circle>
                        <circle id="Oval-Copy-15" cx="110" cy="56" r="2"></circle>
                        <circle id="Oval-Copy-20" cx="110" cy="74" r="2"></circle>
                        <circle id="Oval-Copy-19" cx="110" cy="92" r="2"></circle>
                        <circle id="Oval-Copy-18" cx="110" cy="110" r="2"></circle>
                        <circle id="Oval-Copy-17" cx="110" cy="128" r="2"></circle>
                        <circle id="Oval-Copy-22" cx="110" cy="146" r="2"></circle>
                        <circle id="Oval-Copy-21" cx="110" cy="164" r="2"></circle>
                        <circle id="Oval" cx="128" cy="2" r="2"></circle>
                        <circle id="Oval-Copy-14" cx="128" cy="20" r="2"></circle>
                        <circle id="Oval-Copy-16" cx="128" cy="38" r="2"></circle>
                        <circle id="Oval-Copy-15" cx="128" cy="56" r="2"></circle>
                        <circle id="Oval-Copy-20" cx="128" cy="74" r="2"></circle>
                        <circle id="Oval-Copy-19" cx="128" cy="92" r="2"></circle>
                        <circle id="Oval-Copy-18" cx="128" cy="110" r="2"></circle>
                        <circle id="Oval-Copy-17" cx="128" cy="128" r="2"></circle>
                        <circle id="Oval-Copy-22" cx="128" cy="146" r="2"></circle>
                        <circle id="Oval-Copy-21" cx="128" cy="164" r="2"></circle>
                        <circle id="Oval" cx="74" cy="2" r="2"></circle>
                        <circle id="Oval-Copy-14" cx="74" cy="20" r="2"></circle>
                        <circle id="Oval-Copy-16" cx="74" cy="38" r="2"></circle>
                        <circle id="Oval-Copy-15" cx="74" cy="56" r="2"></circle>
                        <circle id="Oval-Copy-20" cx="74" cy="74" r="2"></circle>
                        <circle id="Oval-Copy-19" cx="74" cy="92" r="2"></circle>
                        <circle id="Oval-Copy-18" cx="74" cy="110" r="2"></circle>
                        <circle id="Oval-Copy-17" cx="74" cy="128" r="2"></circle>
                        <circle id="Oval-Copy-22" cx="74" cy="146" r="2"></circle>
                        <circle id="Oval-Copy-21" cx="74" cy="164" r="2"></circle>
                        <circle id="Oval" cx="92" cy="2" r="2"></circle>
                        <circle id="Oval-Copy-14" cx="92" cy="20" r="2"></circle>
                        <circle id="Oval-Copy-16" cx="92" cy="38" r="2"></circle>
                        <circle id="Oval-Copy-15" cx="92" cy="56" r="2"></circle>
                        <circle id="Oval-Copy-20" cx="92" cy="74" r="2"></circle>
                        <circle id="Oval-Copy-19" cx="92" cy="92" r="2"></circle>
                        <circle id="Oval-Copy-18" cx="92" cy="110" r="2"></circle>
                        <circle id="Oval-Copy-17" cx="92" cy="128" r="2"></circle>
                        <circle id="Oval-Copy-22" cx="92" cy="146" r="2"></circle>
                        <circle id="Oval-Copy-21" cx="92" cy="164" r="2"></circle>
                        <circle id="Oval" cx="38" cy="2" r="2"></circle>
                        <circle id="Oval-Copy-14" cx="38" cy="20" r="2"></circle>
                        <circle id="Oval-Copy-16" cx="38" cy="38" r="2"></circle>
                        <circle id="Oval-Copy-15" cx="38" cy="56" r="2"></circle>
                        <circle id="Oval-Copy-20" cx="38" cy="74" r="2"></circle>
                        <circle id="Oval-Copy-19" cx="38" cy="92" r="2"></circle>
                        <circle id="Oval-Copy-18" cx="38" cy="110" r="2"></circle>
                        <circle id="Oval-Copy-17" cx="38" cy="128" r="2"></circle>
                        <circle id="Oval-Copy-22" cx="38" cy="146" r="2"></circle>
                        <circle id="Oval-Copy-21" cx="38" cy="164" r="2"></circle>
                        <circle id="Oval" cx="56" cy="2" r="2"></circle>
                        <circle id="Oval-Copy-14" cx="56" cy="20" r="2"></circle>
                        <circle id="Oval-Copy-16" cx="56" cy="38" r="2"></circle>
                        <circle id="Oval-Copy-15" cx="56" cy="56" r="2"></circle>
                        <circle id="Oval-Copy-20" cx="56" cy="74" r="2"></circle>
                        <circle id="Oval-Copy-19" cx="56" cy="92" r="2"></circle>
                        <circle id="Oval-Copy-18" cx="56" cy="110" r="2"></circle>
                        <circle id="Oval-Copy-17" cx="56" cy="128" r="2"></circle>
                        <circle id="Oval-Copy-22" cx="56" cy="146" r="2"></circle>
                        <circle id="Oval-Copy-21" cx="56" cy="164" r="2"></circle>
                        <circle id="Oval" cx="2" cy="2" r="2"></circle>
                        <circle id="Oval-Copy-14" cx="2" cy="20" r="2"></circle>
                        <circle id="Oval-Copy-16" cx="2" cy="38" r="2"></circle>
                        <circle id="Oval-Copy-15" cx="2" cy="56" r="2"></circle>
                        <circle id="Oval-Copy-20" cx="2" cy="74" r="2"></circle>
                        <circle id="Oval-Copy-19" cx="2" cy="92" r="2"></circle>
                        <circle id="Oval-Copy-18" cx="2" cy="110" r="2"></circle>
                        <circle id="Oval-Copy-17" cx="2" cy="128" r="2"></circle>
                        <circle id="Oval-Copy-22" cx="2" cy="146" r="2"></circle>
                        <circle id="Oval-Copy-21" cx="2" cy="164" r="2"></circle>
                        <circle id="Oval" cx="20" cy="2" r="2"></circle>
                        <circle id="Oval-Copy-14" cx="20" cy="20" r="2"></circle>
                        <circle id="Oval-Copy-16" cx="20" cy="38" r="2"></circle>
                        <circle id="Oval-Copy-15" cx="20" cy="56" r="2"></circle>
                        <circle id="Oval-Copy-20" cx="20" cy="74" r="2"></circle>
                        <circle id="Oval-Copy-19" cx="20" cy="92" r="2"></circle>
                        <circle id="Oval-Copy-18" cx="20" cy="110" r="2"></circle>
                        <circle id="Oval-Copy-17" cx="20" cy="128" r="2"></circle>
                        <circle id="Oval-Copy-22" cx="20" cy="146" r="2"></circle>
                        <circle id="Oval-Copy-21" cx="20" cy="164" r="2"></circle>
                    </g>
                </g>
            </g>
        </g>
    </g>
</svg>