<?xml version="1.0" encoding="UTF-8"?>
<svg width="1440px" height="1002px" viewBox="0 0 1440 1002" version="1.1" xmlns="http://www.w3.org/2000/svg" xmlns:xlink="http://www.w3.org/1999/xlink">
    <!-- Generator: Sketch 55.1 (78136) - https://sketchapp.com -->
    <title>Group 18</title>
    <desc>Created with Sketch.</desc>
    <defs>
        <linearGradient x1="44.8882138%" y1="19.6205853%" x2="89.2764565%" y2="106.974698%" id="linearGradient-1">
            <stop stop-color="#FF6236" offset="0%"></stop>
            <stop stop-color="#FF1081" offset="100%"></stop>
        </linearGradient>
        <linearGradient x1="43.1373186%" y1="24.9070569%" x2="102.729476%" y2="97.0602505%" id="linearGradient-2">
            <stop stop-color="#FF6236" offset="0%"></stop>
            <stop stop-color="#FF1081" offset="100%"></stop>
        </linearGradient>
        <linearGradient x1="32.7011991%" y1="42.2776632%" x2="76.720207%" y2="88.2594456%" id="linearGradient-3">
            <stop stop-color="#FF6236" offset="0%"></stop>
            <stop stop-color="#FF1081" offset="100%"></stop>
        </linearGradient>
    </defs>
    <g id="Mentory---Web" stroke="none" stroke-width="1" fill="none" fill-rule="evenodd">
        <g id="Become-a-mentor">
            <g id="Header" transform="translate(-569.000000, -93.000000)">
                <g id="Group-18" transform="translate(0.003546, 0.016513)">
                    <path d="M1149.78673,44.9834869 C1273.06872,206.31682 1418.3553,280.650154 1585.64647,267.983487 C1836.58322,248.983487 1787.99645,213.983487 1858.99645,286.983487 C1929.99645,359.983487 1858.99645,354.483487 1858.99645,559.983487 C1858.99645,628.14039 1944.05615,682.371295 1982.99645,787.983487 C1998.19932,829.216047 1982.99645,825.785592 1982.99645,919.612422 C1982.99645,950.31166 1991.66312,1008.76868 2008.99645,1094.98349 L2055.99645,70.9834869 L1149.78673,44.9834869 Z" id="Path-3" fill="url(#linearGradient-1)" opacity="0.25"></path>
                    <g id="Group-2" opacity="0.879208519">
                        <path d="M1067.13683,0.983486877 C1049.52533,4.12373605 1045.72731,20.9286624 1055.74275,51.398266 C1086.78936,145.850171 1163.97477,199.328212 1287.299,211.83239 C1561.79853,239.66464 1783.11382,214.767455 1891.34569,356.559171 C1999.57756,498.350888 1879.32307,674.025421 1959.80318,821.030068 C1980.50054,858.83578 2035.66497,911.153586 2125.29649,977.983487 L2103.90696,21.3186705 L1067.13683,0.983486877 Z" id="Path-2-Copy-2" fill="url(#linearGradient-2)"></path>
                        <path d="M135.429934,550.263494 C167.98753,592.587561 172.516882,626.565458 149.017991,652.197183 C106.028386,670.349698 100.85988,698.737277 133.512473,737.359919 C241.084753,864.600218 448.457294,956.615845 755.630096,1013.4068 L358.081232,597.526095 L208.850112,441.413604 C87.6403282,420.040091 63.1669355,456.323388 135.429934,550.263494 Z" id="Path-2-Copy-3" fill="url(#linearGradient-3)" transform="translate(425.287087, 724.438998) scale(-1, 1) rotate(56.000000) translate(-425.287087, -724.438998) "></path>
                    </g>
                </g>
            </g>
        </g>
    </g>
</svg>