<?xml version="1.0" encoding="UTF-8"?>
<svg width="967px" height="903px" viewBox="0 0 967 903" version="1.1" xmlns="http://www.w3.org/2000/svg" xmlns:xlink="http://www.w3.org/1999/xlink">
    <!-- Generator: Sketch 54.1 (76490) - https://sketchapp.com -->
    <title>Group 21</title>
    <desc>Created with Sketch.</desc>
    <defs>
        <linearGradient x1="43.1373186%" y1="24.5423229%" x2="102.729476%" y2="97.7442865%" id="linearGradient-1">
            <stop stop-color="#FF6236" offset="0%"></stop>
            <stop stop-color="#FF1081" offset="100%"></stop>
        </linearGradient>
        <linearGradient x1="43.1373186%" y1="22.2528027%" x2="102.729476%" y2="102.038139%" id="linearGradient-2">
            <stop stop-color="#FF6236" offset="0%"></stop>
            <stop stop-color="#FF1081" offset="100%"></stop>
        </linearGradient>
        <circle id="path-3" cx="100" cy="100" r="100"></circle>
    </defs>
    <g id="Mentory---Web" stroke="none" stroke-width="1" fill="none" fill-rule="evenodd">
        <g id="Home" transform="translate(-473.000000, 0.000000)">
            <g id="Group-21" transform="translate(459.000000, -122.000000)">
                <path d="M0.680883551,0 C-6.37735115,134.666411 41.4401821,209.300542 144.133483,223.902393 C298.173435,245.80517 481.265915,255.66451 542.002018,367.248456 C602.738122,478.832403 398.749352,518.715998 478.522993,674.984412 C558.296634,831.252825 702.261909,831.187998 784.022049,843.495051 C865.782189,855.802104 920.976797,903.587249 981.356845,1025.60944 C990.191554,1043.46352 1041.40594,1043.46352 1135,1025.60944 L1117.04343,31.0977998 L0.680883551,0 Z" id="Path-2-Copy" fill="url(#linearGradient-1)" opacity="0.254375906"></path>
                <path d="M70.6885762,0 C59.359167,156.594947 105.040295,242.192974 207.731959,256.794081 C361.769456,278.695741 460.795024,269.920935 521.53016,381.499193 C582.265295,493.077452 510.628981,637.472846 555.791005,753.153246 C600.953029,868.833647 727.095234,868.833647 808.85407,881.140072 C890.612907,893.446498 1001.182,910.675494 1072.03966,1005.84518 C1090.02528,1030.00187 1111.05857,1046.03431 1135.13955,1053.94252 C1161.25064,1062.51743 1174.53746,1053.05564 1175,1025.55716 L1157.04372,31.0962147 L70.6885762,0 Z" id="Path-2-Copy-2" fill="url(#linearGradient-2)" opacity="0.879208519"></path>
                <g id="Group-30" opacity="0.41687593" transform="translate(678.000000, 377.000000)">
                    <mask id="mask-4" fill="white">
                        <use xlink:href="#path-3"></use>
                    </mask>
                    <g id="Mask"></g>
                    <g mask="url(#mask-4)" fill="#FFFFFF">
                        <g transform="translate(-38.400000, -38.400000)">
                            <circle id="Oval" cx="116.8" cy="1.6" r="1.6"></circle>
                            <circle id="Oval-Copy-14" cx="116.8" cy="16" r="1.6"></circle>
                            <circle id="Oval-Copy-16" cx="116.8" cy="30.4" r="1.6"></circle>
                            <circle id="Oval-Copy-15" cx="116.8" cy="44.8" r="1.6"></circle>
                            <circle id="Oval-Copy-20" cx="116.8" cy="59.2" r="1.6"></circle>
                            <circle id="Oval-Copy-19" cx="116.8" cy="73.6" r="1.6"></circle>
                            <circle id="Oval-Copy-18" cx="116.8" cy="88" r="1.6"></circle>
                            <circle id="Oval-Copy-17" cx="116.8" cy="102.4" r="1.6"></circle>
                            <circle id="Oval-Copy-22" cx="116.8" cy="116.8" r="1.6"></circle>
                            <circle id="Oval-Copy-21" cx="116.8" cy="131.2" r="1.6"></circle>
                            <circle id="Oval" cx="131.2" cy="1.6" r="1.6"></circle>
                            <circle id="Oval-Copy-14" cx="131.2" cy="16" r="1.6"></circle>
                            <circle id="Oval-Copy-16" cx="131.2" cy="30.4" r="1.6"></circle>
                            <circle id="Oval-Copy-15" cx="131.2" cy="44.8" r="1.6"></circle>
                            <circle id="Oval-Copy-20" cx="131.2" cy="59.2" r="1.6"></circle>
                            <circle id="Oval-Copy-19" cx="131.2" cy="73.6" r="1.6"></circle>
                            <circle id="Oval-Copy-18" cx="131.2" cy="88" r="1.6"></circle>
                            <circle id="Oval-Copy-17" cx="131.2" cy="102.4" r="1.6"></circle>
                            <circle id="Oval-Copy-22" cx="131.2" cy="116.8" r="1.6"></circle>
                            <circle id="Oval-Copy-21" cx="131.2" cy="131.2" r="1.6"></circle>
                            <circle id="Oval" cx="88" cy="1.6" r="1.6"></circle>
                            <circle id="Oval-Copy-14" cx="88" cy="16" r="1.6"></circle>
                            <circle id="Oval-Copy-16" cx="88" cy="30.4" r="1.6"></circle>
                            <circle id="Oval-Copy-15" cx="88" cy="44.8" r="1.6"></circle>
                            <circle id="Oval-Copy-20" cx="88" cy="59.2" r="1.6"></circle>
                            <circle id="Oval-Copy-19" cx="88" cy="73.6" r="1.6"></circle>
                            <circle id="Oval-Copy-18" cx="88" cy="88" r="1.6"></circle>
                            <circle id="Oval-Copy-17" cx="88" cy="102.4" r="1.6"></circle>
                            <circle id="Oval-Copy-22" cx="88" cy="116.8" r="1.6"></circle>
                            <circle id="Oval-Copy-21" cx="88" cy="131.2" r="1.6"></circle>
                            <circle id="Oval" cx="102.4" cy="1.6" r="1.6"></circle>
                            <circle id="Oval-Copy-14" cx="102.4" cy="16" r="1.6"></circle>
                            <circle id="Oval-Copy-16" cx="102.4" cy="30.4" r="1.6"></circle>
                            <circle id="Oval-Copy-15" cx="102.4" cy="44.8" r="1.6"></circle>
                            <circle id="Oval-Copy-20" cx="102.4" cy="59.2" r="1.6"></circle>
                            <circle id="Oval-Copy-19" cx="102.4" cy="73.6" r="1.6"></circle>
                            <circle id="Oval-Copy-18" cx="102.4" cy="88" r="1.6"></circle>
                            <circle id="Oval-Copy-17" cx="102.4" cy="102.4" r="1.6"></circle>
                            <circle id="Oval-Copy-22" cx="102.4" cy="116.8" r="1.6"></circle>
                            <circle id="Oval-Copy-21" cx="102.4" cy="131.2" r="1.6"></circle>
                            <circle id="Oval" cx="59.2" cy="1.6" r="1.6"></circle>
                            <circle id="Oval-Copy-14" cx="59.2" cy="16" r="1.6"></circle>
                            <circle id="Oval-Copy-16" cx="59.2" cy="30.4" r="1.6"></circle>
                            <circle id="Oval-Copy-15" cx="59.2" cy="44.8" r="1.6"></circle>
                            <circle id="Oval-Copy-20" cx="59.2" cy="59.2" r="1.6"></circle>
                            <circle id="Oval-Copy-19" cx="59.2" cy="73.6" r="1.6"></circle>
                            <circle id="Oval-Copy-18" cx="59.2" cy="88" r="1.6"></circle>
                            <circle id="Oval-Copy-17" cx="59.2" cy="102.4" r="1.6"></circle>
                            <circle id="Oval-Copy-22" cx="59.2" cy="116.8" r="1.6"></circle>
                            <circle id="Oval-Copy-21" cx="59.2" cy="131.2" r="1.6"></circle>
                            <circle id="Oval" cx="73.6" cy="1.6" r="1.6"></circle>
                            <circle id="Oval-Copy-14" cx="73.6" cy="16" r="1.6"></circle>
                            <circle id="Oval-Copy-16" cx="73.6" cy="30.4" r="1.6"></circle>
                            <circle id="Oval-Copy-15" cx="73.6" cy="44.8" r="1.6"></circle>
                            <circle id="Oval-Copy-20" cx="73.6" cy="59.2" r="1.6"></circle>
                            <circle id="Oval-Copy-19" cx="73.6" cy="73.6" r="1.6"></circle>
                            <circle id="Oval-Copy-18" cx="73.6" cy="88" r="1.6"></circle>
                            <circle id="Oval-Copy-17" cx="73.6" cy="102.4" r="1.6"></circle>
                            <circle id="Oval-Copy-22" cx="73.6" cy="116.8" r="1.6"></circle>
                            <circle id="Oval-Copy-21" cx="73.6" cy="131.2" r="1.6"></circle>
                            <circle id="Oval" cx="30.4" cy="1.6" r="1.6"></circle>
                            <circle id="Oval-Copy-14" cx="30.4" cy="16" r="1.6"></circle>
                            <circle id="Oval-Copy-16" cx="30.4" cy="30.4" r="1.6"></circle>
                            <circle id="Oval-Copy-15" cx="30.4" cy="44.8" r="1.6"></circle>
                            <circle id="Oval-Copy-20" cx="30.4" cy="59.2" r="1.6"></circle>
                            <circle id="Oval-Copy-19" cx="30.4" cy="73.6" r="1.6"></circle>
                            <circle id="Oval-Copy-18" cx="30.4" cy="88" r="1.6"></circle>
                            <circle id="Oval-Copy-17" cx="30.4" cy="102.4" r="1.6"></circle>
                            <circle id="Oval-Copy-22" cx="30.4" cy="116.8" r="1.6"></circle>
                            <circle id="Oval-Copy-21" cx="30.4" cy="131.2" r="1.6"></circle>
                            <circle id="Oval" cx="44.8" cy="1.6" r="1.6"></circle>
                            <circle id="Oval-Copy-14" cx="44.8" cy="16" r="1.6"></circle>
                            <circle id="Oval-Copy-16" cx="44.8" cy="30.4" r="1.6"></circle>
                            <circle id="Oval-Copy-15" cx="44.8" cy="44.8" r="1.6"></circle>
                            <circle id="Oval-Copy-20" cx="44.8" cy="59.2" r="1.6"></circle>
                            <circle id="Oval-Copy-19" cx="44.8" cy="73.6" r="1.6"></circle>
                            <circle id="Oval-Copy-18" cx="44.8" cy="88" r="1.6"></circle>
                            <circle id="Oval-Copy-17" cx="44.8" cy="102.4" r="1.6"></circle>
                            <circle id="Oval-Copy-22" cx="44.8" cy="116.8" r="1.6"></circle>
                            <circle id="Oval-Copy-21" cx="44.8" cy="131.2" r="1.6"></circle>
                            <circle id="Oval" cx="1.6" cy="1.6" r="1.6"></circle>
                            <circle id="Oval-Copy-14" cx="1.6" cy="16" r="1.6"></circle>
                            <circle id="Oval-Copy-16" cx="1.6" cy="30.4" r="1.6"></circle>
                            <circle id="Oval-Copy-15" cx="1.6" cy="44.8" r="1.6"></circle>
                            <circle id="Oval-Copy-20" cx="1.6" cy="59.2" r="1.6"></circle>
                            <circle id="Oval-Copy-19" cx="1.6" cy="73.6" r="1.6"></circle>
                            <circle id="Oval-Copy-18" cx="1.6" cy="88" r="1.6"></circle>
                            <circle id="Oval-Copy-17" cx="1.6" cy="102.4" r="1.6"></circle>
                            <circle id="Oval-Copy-22" cx="1.6" cy="116.8" r="1.6"></circle>
                            <circle id="Oval-Copy-21" cx="1.6" cy="131.2" r="1.6"></circle>
                            <circle id="Oval" cx="16" cy="1.6" r="1.6"></circle>
                            <circle id="Oval-Copy-14" cx="16" cy="16" r="1.6"></circle>
                            <circle id="Oval-Copy-16" cx="16" cy="30.4" r="1.6"></circle>
                            <circle id="Oval-Copy-15" cx="16" cy="44.8" r="1.6"></circle>
                            <circle id="Oval-Copy-20" cx="16" cy="59.2" r="1.6"></circle>
                            <circle id="Oval-Copy-19" cx="16" cy="73.6" r="1.6"></circle>
                            <circle id="Oval-Copy-18" cx="16" cy="88" r="1.6"></circle>
                            <circle id="Oval-Copy-17" cx="16" cy="102.4" r="1.6"></circle>
                            <circle id="Oval-Copy-22" cx="16" cy="116.8" r="1.6"></circle>
                            <circle id="Oval-Copy-21" cx="16" cy="131.2" r="1.6"></circle>
                            <circle id="Oval" cx="260.8" cy="1.6" r="1.6"></circle>
                            <circle id="Oval-Copy-14" cx="260.8" cy="16" r="1.6"></circle>
                            <circle id="Oval-Copy-16" cx="260.8" cy="30.4" r="1.6"></circle>
                            <circle id="Oval-Copy-15" cx="260.8" cy="44.8" r="1.6"></circle>
                            <circle id="Oval-Copy-20" cx="260.8" cy="59.2" r="1.6"></circle>
                            <circle id="Oval-Copy-19" cx="260.8" cy="73.6" r="1.6"></circle>
                            <circle id="Oval-Copy-18" cx="260.8" cy="88" r="1.6"></circle>
                            <circle id="Oval-Copy-17" cx="260.8" cy="102.4" r="1.6"></circle>
                            <circle id="Oval-Copy-22" cx="260.8" cy="116.8" r="1.6"></circle>
                            <circle id="Oval-Copy-21" cx="260.8" cy="131.2" r="1.6"></circle>
                            <circle id="Oval" cx="275.2" cy="1.6" r="1.6"></circle>
                            <circle id="Oval-Copy-14" cx="275.2" cy="16" r="1.6"></circle>
                            <circle id="Oval-Copy-16" cx="275.2" cy="30.4" r="1.6"></circle>
                            <circle id="Oval-Copy-15" cx="275.2" cy="44.8" r="1.6"></circle>
                            <circle id="Oval-Copy-20" cx="275.2" cy="59.2" r="1.6"></circle>
                            <circle id="Oval-Copy-19" cx="275.2" cy="73.6" r="1.6"></circle>
                            <circle id="Oval-Copy-18" cx="275.2" cy="88" r="1.6"></circle>
                            <circle id="Oval-Copy-17" cx="275.2" cy="102.4" r="1.6"></circle>
                            <circle id="Oval-Copy-22" cx="275.2" cy="116.8" r="1.6"></circle>
                            <circle id="Oval-Copy-21" cx="275.2" cy="131.2" r="1.6"></circle>
                            <circle id="Oval" cx="232" cy="1.6" r="1.6"></circle>
                            <circle id="Oval-Copy-14" cx="232" cy="16" r="1.6"></circle>
                            <circle id="Oval-Copy-16" cx="232" cy="30.4" r="1.6"></circle>
                            <circle id="Oval-Copy-15" cx="232" cy="44.8" r="1.6"></circle>
                            <circle id="Oval-Copy-20" cx="232" cy="59.2" r="1.6"></circle>
                            <circle id="Oval-Copy-19" cx="232" cy="73.6" r="1.6"></circle>
                            <circle id="Oval-Copy-18" cx="232" cy="88" r="1.6"></circle>
                            <circle id="Oval-Copy-17" cx="232" cy="102.4" r="1.6"></circle>
                            <circle id="Oval-Copy-22" cx="232" cy="116.8" r="1.6"></circle>
                            <circle id="Oval-Copy-21" cx="232" cy="131.2" r="1.6"></circle>
                            <circle id="Oval" cx="246.4" cy="1.6" r="1.6"></circle>
                            <circle id="Oval-Copy-14" cx="246.4" cy="16" r="1.6"></circle>
                            <circle id="Oval-Copy-16" cx="246.4" cy="30.4" r="1.6"></circle>
                            <circle id="Oval-Copy-15" cx="246.4" cy="44.8" r="1.6"></circle>
                            <circle id="Oval-Copy-20" cx="246.4" cy="59.2" r="1.6"></circle>
                            <circle id="Oval-Copy-19" cx="246.4" cy="73.6" r="1.6"></circle>
                            <circle id="Oval-Copy-18" cx="246.4" cy="88" r="1.6"></circle>
                            <circle id="Oval-Copy-17" cx="246.4" cy="102.4" r="1.6"></circle>
                            <circle id="Oval-Copy-22" cx="246.4" cy="116.8" r="1.6"></circle>
                            <circle id="Oval-Copy-21" cx="246.4" cy="131.2" r="1.6"></circle>
                            <circle id="Oval" cx="203.2" cy="1.6" r="1.6"></circle>
                            <circle id="Oval-Copy-14" cx="203.2" cy="16" r="1.6"></circle>
                            <circle id="Oval-Copy-16" cx="203.2" cy="30.4" r="1.6"></circle>
                            <circle id="Oval-Copy-15" cx="203.2" cy="44.8" r="1.6"></circle>
                            <circle id="Oval-Copy-20" cx="203.2" cy="59.2" r="1.6"></circle>
                            <circle id="Oval-Copy-19" cx="203.2" cy="73.6" r="1.6"></circle>
                            <circle id="Oval-Copy-18" cx="203.2" cy="88" r="1.6"></circle>
                            <circle id="Oval-Copy-17" cx="203.2" cy="102.4" r="1.6"></circle>
                            <circle id="Oval-Copy-22" cx="203.2" cy="116.8" r="1.6"></circle>
                            <circle id="Oval-Copy-21" cx="203.2" cy="131.2" r="1.6"></circle>
                            <circle id="Oval" cx="217.6" cy="1.6" r="1.6"></circle>
                            <circle id="Oval-Copy-14" cx="217.6" cy="16" r="1.6"></circle>
                            <circle id="Oval-Copy-16" cx="217.6" cy="30.4" r="1.6"></circle>
                            <circle id="Oval-Copy-15" cx="217.6" cy="44.8" r="1.6"></circle>
                            <circle id="Oval-Copy-20" cx="217.6" cy="59.2" r="1.6"></circle>
                            <circle id="Oval-Copy-19" cx="217.6" cy="73.6" r="1.6"></circle>
                            <circle id="Oval-Copy-18" cx="217.6" cy="88" r="1.6"></circle>
                            <circle id="Oval-Copy-17" cx="217.6" cy="102.4" r="1.6"></circle>
                            <circle id="Oval-Copy-22" cx="217.6" cy="116.8" r="1.6"></circle>
                            <circle id="Oval-Copy-21" cx="217.6" cy="131.2" r="1.6"></circle>
                            <circle id="Oval" cx="174.4" cy="1.6" r="1.6"></circle>
                            <circle id="Oval-Copy-14" cx="174.4" cy="16" r="1.6"></circle>
                            <circle id="Oval-Copy-16" cx="174.4" cy="30.4" r="1.6"></circle>
                            <circle id="Oval-Copy-15" cx="174.4" cy="44.8" r="1.6"></circle>
                            <circle id="Oval-Copy-20" cx="174.4" cy="59.2" r="1.6"></circle>
                            <circle id="Oval-Copy-19" cx="174.4" cy="73.6" r="1.6"></circle>
                            <circle id="Oval-Copy-18" cx="174.4" cy="88" r="1.6"></circle>
                            <circle id="Oval-Copy-17" cx="174.4" cy="102.4" r="1.6"></circle>
                            <circle id="Oval-Copy-22" cx="174.4" cy="116.8" r="1.6"></circle>
                            <circle id="Oval-Copy-21" cx="174.4" cy="131.2" r="1.6"></circle>
                            <circle id="Oval" cx="188.8" cy="1.6" r="1.6"></circle>
                            <circle id="Oval-Copy-14" cx="188.8" cy="16" r="1.6"></circle>
                            <circle id="Oval-Copy-16" cx="188.8" cy="30.4" r="1.6"></circle>
                            <circle id="Oval-Copy-15" cx="188.8" cy="44.8" r="1.6"></circle>
                            <circle id="Oval-Copy-20" cx="188.8" cy="59.2" r="1.6"></circle>
                            <circle id="Oval-Copy-19" cx="188.8" cy="73.6" r="1.6"></circle>
                            <circle id="Oval-Copy-18" cx="188.8" cy="88" r="1.6"></circle>
                            <circle id="Oval-Copy-17" cx="188.8" cy="102.4" r="1.6"></circle>
                            <circle id="Oval-Copy-22" cx="188.8" cy="116.8" r="1.6"></circle>
                            <circle id="Oval-Copy-21" cx="188.8" cy="131.2" r="1.6"></circle>
                            <circle id="Oval" cx="145.6" cy="1.6" r="1.6"></circle>
                            <circle id="Oval-Copy-14" cx="145.6" cy="16" r="1.6"></circle>
                            <circle id="Oval-Copy-16" cx="145.6" cy="30.4" r="1.6"></circle>
                            <circle id="Oval-Copy-15" cx="145.6" cy="44.8" r="1.6"></circle>
                            <circle id="Oval-Copy-20" cx="145.6" cy="59.2" r="1.6"></circle>
                            <circle id="Oval-Copy-19" cx="145.6" cy="73.6" r="1.6"></circle>
                            <circle id="Oval-Copy-18" cx="145.6" cy="88" r="1.6"></circle>
                            <circle id="Oval-Copy-17" cx="145.6" cy="102.4" r="1.6"></circle>
                            <circle id="Oval-Copy-22" cx="145.6" cy="116.8" r="1.6"></circle>
                            <circle id="Oval-Copy-21" cx="145.6" cy="131.2" r="1.6"></circle>
                            <circle id="Oval" cx="160" cy="1.6" r="1.6"></circle>
                            <circle id="Oval-Copy-14" cx="160" cy="16" r="1.6"></circle>
                            <circle id="Oval-Copy-16" cx="160" cy="30.4" r="1.6"></circle>
                            <circle id="Oval-Copy-15" cx="160" cy="44.8" r="1.6"></circle>
                            <circle id="Oval-Copy-20" cx="160" cy="59.2" r="1.6"></circle>
                            <circle id="Oval-Copy-19" cx="160" cy="73.6" r="1.6"></circle>
                            <circle id="Oval-Copy-18" cx="160" cy="88" r="1.6"></circle>
                            <circle id="Oval-Copy-17" cx="160" cy="102.4" r="1.6"></circle>
                            <circle id="Oval-Copy-22" cx="160" cy="116.8" r="1.6"></circle>
                            <circle id="Oval-Copy-21" cx="160" cy="131.2" r="1.6"></circle>
                            <circle id="Oval" cx="116.8" cy="145.6" r="1.6"></circle>
                            <circle id="Oval-Copy-14" cx="116.8" cy="160" r="1.6"></circle>
                            <circle id="Oval-Copy-16" cx="116.8" cy="174.4" r="1.6"></circle>
                            <circle id="Oval-Copy-15" cx="116.8" cy="188.8" r="1.6"></circle>
                            <circle id="Oval-Copy-20" cx="116.8" cy="203.2" r="1.6"></circle>
                            <circle id="Oval-Copy-19" cx="116.8" cy="217.6" r="1.6"></circle>
                            <circle id="Oval-Copy-18" cx="116.8" cy="232" r="1.6"></circle>
                            <circle id="Oval-Copy-17" cx="116.8" cy="246.4" r="1.6"></circle>
                            <circle id="Oval-Copy-22" cx="116.8" cy="260.8" r="1.6"></circle>
                            <circle id="Oval-Copy-21" cx="116.8" cy="275.2" r="1.6"></circle>
                            <circle id="Oval" cx="131.2" cy="145.6" r="1.6"></circle>
                            <circle id="Oval-Copy-14" cx="131.2" cy="160" r="1.6"></circle>
                            <circle id="Oval-Copy-16" cx="131.2" cy="174.4" r="1.6"></circle>
                            <circle id="Oval-Copy-15" cx="131.2" cy="188.8" r="1.6"></circle>
                            <circle id="Oval-Copy-20" cx="131.2" cy="203.2" r="1.6"></circle>
                            <circle id="Oval-Copy-19" cx="131.2" cy="217.6" r="1.6"></circle>
                            <circle id="Oval-Copy-18" cx="131.2" cy="232" r="1.6"></circle>
                            <circle id="Oval-Copy-17" cx="131.2" cy="246.4" r="1.6"></circle>
                            <circle id="Oval-Copy-22" cx="131.2" cy="260.8" r="1.6"></circle>
                            <circle id="Oval-Copy-21" cx="131.2" cy="275.2" r="1.6"></circle>
                            <circle id="Oval" cx="88" cy="145.6" r="1.6"></circle>
                            <circle id="Oval-Copy-14" cx="88" cy="160" r="1.6"></circle>
                            <circle id="Oval-Copy-16" cx="88" cy="174.4" r="1.6"></circle>
                            <circle id="Oval-Copy-15" cx="88" cy="188.8" r="1.6"></circle>
                            <circle id="Oval-Copy-20" cx="88" cy="203.2" r="1.6"></circle>
                            <circle id="Oval-Copy-19" cx="88" cy="217.6" r="1.6"></circle>
                            <circle id="Oval-Copy-18" cx="88" cy="232" r="1.6"></circle>
                            <circle id="Oval-Copy-17" cx="88" cy="246.4" r="1.6"></circle>
                            <circle id="Oval-Copy-22" cx="88" cy="260.8" r="1.6"></circle>
                            <circle id="Oval-Copy-21" cx="88" cy="275.2" r="1.6"></circle>
                            <circle id="Oval" cx="102.4" cy="145.6" r="1.6"></circle>
                            <circle id="Oval-Copy-14" cx="102.4" cy="160" r="1.6"></circle>
                            <circle id="Oval-Copy-16" cx="102.4" cy="174.4" r="1.6"></circle>
                            <circle id="Oval-Copy-15" cx="102.4" cy="188.8" r="1.6"></circle>
                            <circle id="Oval-Copy-20" cx="102.4" cy="203.2" r="1.6"></circle>
                            <circle id="Oval-Copy-19" cx="102.4" cy="217.6" r="1.6"></circle>
                            <circle id="Oval-Copy-18" cx="102.4" cy="232" r="1.6"></circle>
                            <circle id="Oval-Copy-17" cx="102.4" cy="246.4" r="1.6"></circle>
                            <circle id="Oval-Copy-22" cx="102.4" cy="260.8" r="1.6"></circle>
                            <circle id="Oval-Copy-21" cx="102.4" cy="275.2" r="1.6"></circle>
                            <circle id="Oval" cx="59.2" cy="145.6" r="1.6"></circle>
                            <circle id="Oval-Copy-14" cx="59.2" cy="160" r="1.6"></circle>
                            <circle id="Oval-Copy-16" cx="59.2" cy="174.4" r="1.6"></circle>
                            <circle id="Oval-Copy-15" cx="59.2" cy="188.8" r="1.6"></circle>
                            <circle id="Oval-Copy-20" cx="59.2" cy="203.2" r="1.6"></circle>
                            <circle id="Oval-Copy-19" cx="59.2" cy="217.6" r="1.6"></circle>
                            <circle id="Oval-Copy-18" cx="59.2" cy="232" r="1.6"></circle>
                            <circle id="Oval-Copy-17" cx="59.2" cy="246.4" r="1.6"></circle>
                            <circle id="Oval-Copy-22" cx="59.2" cy="260.8" r="1.6"></circle>
                            <circle id="Oval-Copy-21" cx="59.2" cy="275.2" r="1.6"></circle>
                            <circle id="Oval" cx="73.6" cy="145.6" r="1.6"></circle>
                            <circle id="Oval-Copy-14" cx="73.6" cy="160" r="1.6"></circle>
                            <circle id="Oval-Copy-16" cx="73.6" cy="174.4" r="1.6"></circle>
                            <circle id="Oval-Copy-15" cx="73.6" cy="188.8" r="1.6"></circle>
                            <circle id="Oval-Copy-20" cx="73.6" cy="203.2" r="1.6"></circle>
                            <circle id="Oval-Copy-19" cx="73.6" cy="217.6" r="1.6"></circle>
                            <circle id="Oval-Copy-18" cx="73.6" cy="232" r="1.6"></circle>
                            <circle id="Oval-Copy-17" cx="73.6" cy="246.4" r="1.6"></circle>
                            <circle id="Oval-Copy-22" cx="73.6" cy="260.8" r="1.6"></circle>
                            <circle id="Oval-Copy-21" cx="73.6" cy="275.2" r="1.6"></circle>
                            <circle id="Oval" cx="30.4" cy="145.6" r="1.6"></circle>
                            <circle id="Oval-Copy-14" cx="30.4" cy="160" r="1.6"></circle>
                            <circle id="Oval-Copy-16" cx="30.4" cy="174.4" r="1.6"></circle>
                            <circle id="Oval-Copy-15" cx="30.4" cy="188.8" r="1.6"></circle>
                            <circle id="Oval-Copy-20" cx="30.4" cy="203.2" r="1.6"></circle>
                            <circle id="Oval-Copy-19" cx="30.4" cy="217.6" r="1.6"></circle>
                            <circle id="Oval-Copy-18" cx="30.4" cy="232" r="1.6"></circle>
                            <circle id="Oval-Copy-17" cx="30.4" cy="246.4" r="1.6"></circle>
                            <circle id="Oval-Copy-22" cx="30.4" cy="260.8" r="1.6"></circle>
                            <circle id="Oval-Copy-21" cx="30.4" cy="275.2" r="1.6"></circle>
                            <circle id="Oval" cx="44.8" cy="145.6" r="1.6"></circle>
                            <circle id="Oval-Copy-14" cx="44.8" cy="160" r="1.6"></circle>
                            <circle id="Oval-Copy-16" cx="44.8" cy="174.4" r="1.6"></circle>
                            <circle id="Oval-Copy-15" cx="44.8" cy="188.8" r="1.6"></circle>
                            <circle id="Oval-Copy-20" cx="44.8" cy="203.2" r="1.6"></circle>
                            <circle id="Oval-Copy-19" cx="44.8" cy="217.6" r="1.6"></circle>
                            <circle id="Oval-Copy-18" cx="44.8" cy="232" r="1.6"></circle>
                            <circle id="Oval-Copy-17" cx="44.8" cy="246.4" r="1.6"></circle>
                            <circle id="Oval-Copy-22" cx="44.8" cy="260.8" r="1.6"></circle>
                            <circle id="Oval-Copy-21" cx="44.8" cy="275.2" r="1.6"></circle>
                            <circle id="Oval" cx="1.6" cy="145.6" r="1.6"></circle>
                            <circle id="Oval-Copy-14" cx="1.6" cy="160" r="1.6"></circle>
                            <circle id="Oval-Copy-16" cx="1.6" cy="174.4" r="1.6"></circle>
                            <circle id="Oval-Copy-15" cx="1.6" cy="188.8" r="1.6"></circle>
                            <circle id="Oval-Copy-20" cx="1.6" cy="203.2" r="1.6"></circle>
                            <circle id="Oval-Copy-19" cx="1.6" cy="217.6" r="1.6"></circle>
                            <circle id="Oval-Copy-18" cx="1.6" cy="232" r="1.6"></circle>
                            <circle id="Oval-Copy-17" cx="1.6" cy="246.4" r="1.6"></circle>
                            <circle id="Oval-Copy-22" cx="1.6" cy="260.8" r="1.6"></circle>
                            <circle id="Oval-Copy-21" cx="1.6" cy="275.2" r="1.6"></circle>
                            <circle id="Oval" cx="16" cy="145.6" r="1.6"></circle>
                            <circle id="Oval-Copy-14" cx="16" cy="160" r="1.6"></circle>
                            <circle id="Oval-Copy-16" cx="16" cy="174.4" r="1.6"></circle>
                            <circle id="Oval-Copy-15" cx="16" cy="188.8" r="1.6"></circle>
                            <circle id="Oval-Copy-20" cx="16" cy="203.2" r="1.6"></circle>
                            <circle id="Oval-Copy-19" cx="16" cy="217.6" r="1.6"></circle>
                            <circle id="Oval-Copy-18" cx="16" cy="232" r="1.6"></circle>
                            <circle id="Oval-Copy-17" cx="16" cy="246.4" r="1.6"></circle>
                            <circle id="Oval-Copy-22" cx="16" cy="260.8" r="1.6"></circle>
                            <circle id="Oval-Copy-21" cx="16" cy="275.2" r="1.6"></circle>
                            <circle id="Oval" cx="260.8" cy="145.6" r="1.6"></circle>
                            <circle id="Oval-Copy-14" cx="260.8" cy="160" r="1.6"></circle>
                            <circle id="Oval-Copy-16" cx="260.8" cy="174.4" r="1.6"></circle>
                            <circle id="Oval-Copy-15" cx="260.8" cy="188.8" r="1.6"></circle>
                            <circle id="Oval-Copy-20" cx="260.8" cy="203.2" r="1.6"></circle>
                            <circle id="Oval-Copy-19" cx="260.8" cy="217.6" r="1.6"></circle>
                            <circle id="Oval-Copy-18" cx="260.8" cy="232" r="1.6"></circle>
                            <circle id="Oval-Copy-17" cx="260.8" cy="246.4" r="1.6"></circle>
                            <circle id="Oval-Copy-22" cx="260.8" cy="260.8" r="1.6"></circle>
                            <circle id="Oval-Copy-21" cx="260.8" cy="275.2" r="1.6"></circle>
                            <circle id="Oval" cx="275.2" cy="145.6" r="1.6"></circle>
                            <circle id="Oval-Copy-14" cx="275.2" cy="160" r="1.6"></circle>
                            <circle id="Oval-Copy-16" cx="275.2" cy="174.4" r="1.6"></circle>
                            <circle id="Oval-Copy-15" cx="275.2" cy="188.8" r="1.6"></circle>
                            <circle id="Oval-Copy-20" cx="275.2" cy="203.2" r="1.6"></circle>
                            <circle id="Oval-Copy-19" cx="275.2" cy="217.6" r="1.6"></circle>
                            <circle id="Oval-Copy-18" cx="275.2" cy="232" r="1.6"></circle>
                            <circle id="Oval-Copy-17" cx="275.2" cy="246.4" r="1.6"></circle>
                            <circle id="Oval-Copy-22" cx="275.2" cy="260.8" r="1.6"></circle>
                            <circle id="Oval-Copy-21" cx="275.2" cy="275.2" r="1.6"></circle>
                            <circle id="Oval" cx="232" cy="145.6" r="1.6"></circle>
                            <circle id="Oval-Copy-14" cx="232" cy="160" r="1.6"></circle>
                            <circle id="Oval-Copy-16" cx="232" cy="174.4" r="1.6"></circle>
                            <circle id="Oval-Copy-15" cx="232" cy="188.8" r="1.6"></circle>
                            <circle id="Oval-Copy-20" cx="232" cy="203.2" r="1.6"></circle>
                            <circle id="Oval-Copy-19" cx="232" cy="217.6" r="1.6"></circle>
                            <circle id="Oval-Copy-18" cx="232" cy="232" r="1.6"></circle>
                            <circle id="Oval-Copy-17" cx="232" cy="246.4" r="1.6"></circle>
                            <circle id="Oval-Copy-22" cx="232" cy="260.8" r="1.6"></circle>
                            <circle id="Oval-Copy-21" cx="232" cy="275.2" r="1.6"></circle>
                            <circle id="Oval" cx="246.4" cy="145.6" r="1.6"></circle>
                            <circle id="Oval-Copy-14" cx="246.4" cy="160" r="1.6"></circle>
                            <circle id="Oval-Copy-16" cx="246.4" cy="174.4" r="1.6"></circle>
                            <circle id="Oval-Copy-15" cx="246.4" cy="188.8" r="1.6"></circle>
                            <circle id="Oval-Copy-20" cx="246.4" cy="203.2" r="1.6"></circle>
                            <circle id="Oval-Copy-19" cx="246.4" cy="217.6" r="1.6"></circle>
                            <circle id="Oval-Copy-18" cx="246.4" cy="232" r="1.6"></circle>
                            <circle id="Oval-Copy-17" cx="246.4" cy="246.4" r="1.6"></circle>
                            <circle id="Oval-Copy-22" cx="246.4" cy="260.8" r="1.6"></circle>
                            <circle id="Oval-Copy-21" cx="246.4" cy="275.2" r="1.6"></circle>
                            <circle id="Oval" cx="203.2" cy="145.6" r="1.6"></circle>
                            <circle id="Oval-Copy-14" cx="203.2" cy="160" r="1.6"></circle>
                            <circle id="Oval-Copy-16" cx="203.2" cy="174.4" r="1.6"></circle>
                            <circle id="Oval-Copy-15" cx="203.2" cy="188.8" r="1.6"></circle>
                            <circle id="Oval-Copy-20" cx="203.2" cy="203.2" r="1.6"></circle>
                            <circle id="Oval-Copy-19" cx="203.2" cy="217.6" r="1.6"></circle>
                            <circle id="Oval-Copy-18" cx="203.2" cy="232" r="1.6"></circle>
                            <circle id="Oval-Copy-17" cx="203.2" cy="246.4" r="1.6"></circle>
                            <circle id="Oval-Copy-22" cx="203.2" cy="260.8" r="1.6"></circle>
                            <circle id="Oval-Copy-21" cx="203.2" cy="275.2" r="1.6"></circle>
                            <circle id="Oval" cx="217.6" cy="145.6" r="1.6"></circle>
                            <circle id="Oval-Copy-14" cx="217.6" cy="160" r="1.6"></circle>
                            <circle id="Oval-Copy-16" cx="217.6" cy="174.4" r="1.6"></circle>
                            <circle id="Oval-Copy-15" cx="217.6" cy="188.8" r="1.6"></circle>
                            <circle id="Oval-Copy-20" cx="217.6" cy="203.2" r="1.6"></circle>
                            <circle id="Oval-Copy-19" cx="217.6" cy="217.6" r="1.6"></circle>
                            <circle id="Oval-Copy-18" cx="217.6" cy="232" r="1.6"></circle>
                            <circle id="Oval-Copy-17" cx="217.6" cy="246.4" r="1.6"></circle>
                            <circle id="Oval-Copy-22" cx="217.6" cy="260.8" r="1.6"></circle>
                            <circle id="Oval-Copy-21" cx="217.6" cy="275.2" r="1.6"></circle>
                            <circle id="Oval" cx="174.4" cy="145.6" r="1.6"></circle>
                            <circle id="Oval-Copy-14" cx="174.4" cy="160" r="1.6"></circle>
                            <circle id="Oval-Copy-16" cx="174.4" cy="174.4" r="1.6"></circle>
                            <circle id="Oval-Copy-15" cx="174.4" cy="188.8" r="1.6"></circle>
                            <circle id="Oval-Copy-20" cx="174.4" cy="203.2" r="1.6"></circle>
                            <circle id="Oval-Copy-19" cx="174.4" cy="217.6" r="1.6"></circle>
                            <circle id="Oval-Copy-18" cx="174.4" cy="232" r="1.6"></circle>
                            <circle id="Oval-Copy-17" cx="174.4" cy="246.4" r="1.6"></circle>
                            <circle id="Oval-Copy-22" cx="174.4" cy="260.8" r="1.6"></circle>
                            <circle id="Oval-Copy-21" cx="174.4" cy="275.2" r="1.6"></circle>
                            <circle id="Oval" cx="188.8" cy="145.6" r="1.6"></circle>
                            <circle id="Oval-Copy-14" cx="188.8" cy="160" r="1.6"></circle>
                            <circle id="Oval-Copy-16" cx="188.8" cy="174.4" r="1.6"></circle>
                            <circle id="Oval-Copy-15" cx="188.8" cy="188.8" r="1.6"></circle>
                            <circle id="Oval-Copy-20" cx="188.8" cy="203.2" r="1.6"></circle>
                            <circle id="Oval-Copy-19" cx="188.8" cy="217.6" r="1.6"></circle>
                            <circle id="Oval-Copy-18" cx="188.8" cy="232" r="1.6"></circle>
                            <circle id="Oval-Copy-17" cx="188.8" cy="246.4" r="1.6"></circle>
                            <circle id="Oval-Copy-22" cx="188.8" cy="260.8" r="1.6"></circle>
                            <circle id="Oval-Copy-21" cx="188.8" cy="275.2" r="1.6"></circle>
                            <circle id="Oval" cx="145.6" cy="145.6" r="1.6"></circle>
                            <circle id="Oval-Copy-14" cx="145.6" cy="160" r="1.6"></circle>
                            <circle id="Oval-Copy-16" cx="145.6" cy="174.4" r="1.6"></circle>
                            <circle id="Oval-Copy-15" cx="145.6" cy="188.8" r="1.6"></circle>
                            <circle id="Oval-Copy-20" cx="145.6" cy="203.2" r="1.6"></circle>
                            <circle id="Oval-Copy-19" cx="145.6" cy="217.6" r="1.6"></circle>
                            <circle id="Oval-Copy-18" cx="145.6" cy="232" r="1.6"></circle>
                            <circle id="Oval-Copy-17" cx="145.6" cy="246.4" r="1.6"></circle>
                            <circle id="Oval-Copy-22" cx="145.6" cy="260.8" r="1.6"></circle>
                            <circle id="Oval-Copy-21" cx="145.6" cy="275.2" r="1.6"></circle>
                            <circle id="Oval" cx="160" cy="145.6" r="1.6"></circle>
                            <circle id="Oval-Copy-14" cx="160" cy="160" r="1.6"></circle>
                            <circle id="Oval-Copy-16" cx="160" cy="174.4" r="1.6"></circle>
                            <circle id="Oval-Copy-15" cx="160" cy="188.8" r="1.6"></circle>
                            <circle id="Oval-Copy-20" cx="160" cy="203.2" r="1.6"></circle>
                            <circle id="Oval-Copy-19" cx="160" cy="217.6" r="1.6"></circle>
                            <circle id="Oval-Copy-18" cx="160" cy="232" r="1.6"></circle>
                            <circle id="Oval-Copy-17" cx="160" cy="246.4" r="1.6"></circle>
                            <circle id="Oval-Copy-22" cx="160" cy="260.8" r="1.6"></circle>
                            <circle id="Oval-Copy-21" cx="160" cy="275.2" r="1.6"></circle>
                        </g>
                    </g>
                </g>
            </g>
        </g>
    </g>
</svg>