<?xml version="1.0" encoding="UTF-8"?>
<svg width="166px" height="44px" viewBox="0 0 166 44" version="1.1" xmlns="http://www.w3.org/2000/svg" xmlns:xlink="http://www.w3.org/1999/xlink">
    <!-- Generator: Sketch 54.1 (76490) - https://sketchapp.com -->
    <title>hubspot</title>
    <desc>Created with Sketch.</desc>
    <g id="Mentory---Web" stroke="none" stroke-width="1" fill="none" fill-rule="evenodd">
        <g id="Home" transform="translate(-421.000000, -893.000000)" fill="#646565" fill-rule="nonzero">
            <g id="Companies" transform="translate(0.000000, 783.000000)">
                <g id="Content" transform="translate(267.000000, 42.000000)">
                    <g id="logos" transform="translate(0.500000, 68.000000)">
                        <g id="hubspot" transform="translate(154.333333, 0.000000)">
                            <path d="M0,9.0846395 L5.74476657,9.0846395 L5.74476657,20.4991292 L17.8608435,20.4991292 L17.8608435,9.0846395 L23.6130115,9.0846395 L23.6130115,37.1036979 L17.8608435,37.1036979 L17.8608435,25.4494756 L5.74476657,25.4494756 L5.74476657,37.1036979 L0,37.1036979 L0,9.0846395 Z M41.8123882,27.977459 C41.8123882,30.322981 39.6756388,32.2316315 37.0536156,32.2316315 C34.4306271,32.2316315 32.2951649,30.322981 32.2951649,27.977459 L32.2951649,15.9142814 L26.8470975,15.9142814 L26.8470975,27.977459 C26.8470975,33.0101145 31.4259841,37.1036979 37.0536156,37.1036979 C42.67996,37.1036979 47.2585247,33.0101145 47.2585247,27.977459 L47.2585247,15.9142814 L41.8123882,15.9142814 L41.8123882,27.977459 L41.8123882,27.977459 Z M62.4674177,16.0555883 C59.7649446,16.0555883 57.8785553,16.7569425 56.0568478,18.3562143 L56.0568478,9.0846395 L50.5910815,9.0846395 L50.5910815,26.2673865 C50.5910815,32.6990091 55.7907195,37.1036979 61.6323478,37.1036979 C68.1265856,37.1036979 73.8166462,32.6204413 73.8166462,26.5799309 C73.8166462,20.6159737 68.5697037,16.0555883 62.4674177,16.0555883 L62.4674177,16.0555883 Z M62.6032172,32.5815891 C58.8996255,32.5815891 56.0674672,29.8153122 56.0674672,26.5799309 C56.0674672,23.343974 58.8996255,20.5768337 62.6032172,20.5768337 C65.7414069,20.5768337 68.5751743,23.343974 68.5751743,26.5799309 C68.5751743,29.8153122 65.7414069,32.5815891 62.6032172,32.5815891 L62.6032172,32.5815891 Z M82.9966236,17.2870593 C82.9966236,14.8298732 84.8273416,14.0508146 86.8315095,14.0508146 C88.4450127,14.0508146 90.5801531,15.1421298 91.9735454,16.4677094 L95.5464864,12.7260983 C93.7608204,10.5826078 90.1441146,9.10104376 87.1803403,9.10104376 C81.2524697,9.10104376 76.9812236,12.1804407 76.9812236,17.2870593 C76.9812236,26.7583632 90.0131422,23.7560951 90.0131422,29.0584137 C90.0131422,30.6936598 88.2268326,32.137235 86.1795435,32.137235 C82.9531806,32.137235 81.9066883,30.733951 80.4254447,29.2523869 L76.458621,32.9157181 C78.9879659,35.683434 82.1248685,37.0872936 85.8735121,37.0872936 C91.4953512,37.0872936 96.0282204,33.9690445 96.0282204,29.0961147 C96.0282204,18.5726355 82.9966236,21.8471568 82.9966236,17.2870593 L82.9966236,17.2870593 Z M110.417168,15.7810327 C104.576183,15.7810327 99.3759017,20.1831313 99.3759017,26.6161929 L99.3759017,43.8432602 L104.841346,43.8432602 L104.841346,34.5276528 C106.663376,36.1257735 108.5488,36.8282789 111.252238,36.8282789 C117.354202,36.8282789 122.601788,32.2684691 122.601788,26.3045119 C122.601788,20.2631381 116.910119,15.7810327 110.417168,15.7810327 L110.417168,15.7810327 Z M111.388359,32.3076091 C107.685089,32.3076091 104.852609,29.5375909 104.852609,26.3045119 C104.852609,23.068555 107.685089,20.3014147 111.388359,20.3014147 C114.525905,20.3014147 117.359995,23.068555 117.359995,26.3045119 C117.359995,29.5375909 114.525905,32.3076091 111.388359,32.3076091 L111.388359,32.3076091 Z M162.833497,32.5815891 C159.609708,32.5815891 158.69451,31.3348651 158.69451,29.4242 L158.69451,20.9665069 L163.705574,20.9665069 L163.705574,16.6795259 L158.69451,16.6795259 L158.69451,11.0272497 L153.161166,13.2484446 L153.161166,30.476663 C153.161166,34.8816396 156.55937,37.1036979 161.220637,37.1036979 C161.917977,37.1036979 162.877905,37.0634067 163.401473,36.9480013 L164.75271,32.5050359 C164.142578,32.5427369 163.44556,32.5815891 162.833497,32.5815891 L162.833497,32.5815891 Z" id="Shape"></path>
                            <path d="M147.627145,20.658284 C146.58083,19.03267 145.109049,17.729451 143.269,16.7483369 C141.893945,16.0254871 140.468116,15.5667052 138.861368,15.3696699 L138.861368,10.2043842 C140.468116,9.58832231 141.465265,8.22474492 141.465265,6.633953 C141.465265,4.46569375 139.539737,2.70862606 137.14054,2.70862606 C134.739415,2.70862606 132.780146,4.46569375 132.780146,6.633953 C132.780146,8.22474492 133.719773,9.58832231 135.326521,10.2043842 L135.326521,15.3719914 C134.041123,15.5397181 132.708164,15.9015782 131.490891,16.4575719 C129.004609,14.7524473 120.851967,9.15855893 116.082816,5.89137064 C116.195931,5.52312639 116.283017,5.14356495 116.283017,4.74311021 C116.283017,2.34154255 114.129331,0.394984326 111.468877,0.394984326 C108.808423,0.394984326 106.655702,2.34154255 106.655702,4.74311021 C106.655702,7.14438769 108.810673,9.09152629 111.471127,9.09152629 C112.378618,9.09152629 113.217984,8.85183382 113.942306,8.45776314 L114.948773,9.14724173 L128.778379,18.1452855 C128.047308,18.7514811 127.366368,19.4409597 126.82168,20.2145918 C125.717844,21.791745 125.043331,23.5270489 125.043331,25.419923 L125.043331,25.8148642 C125.043331,27.1436194 125.322905,28.3980874 125.799146,29.576527 C126.218507,30.6055216 126.831642,31.5410767 127.590992,32.3869648 L123.001154,36.5418277 C121.642605,36.085215 120.113884,36.3879501 119.091613,37.3160402 C118.391606,37.9450476 117.999536,38.8009033 118.002881,39.692652 C118.003202,40.5901929 118.390428,41.4337595 119.093542,42.0683932 C119.789648,42.7009803 120.737184,43.0556515 121.724753,43.0532797 C122.712585,43.0555604 123.660383,42.700921 124.356928,42.0683932 C125.056478,41.4394188 125.448683,40.5840872 125.446304,39.692652 C125.446304,39.345301 125.386854,39.0063654 125.275024,38.6842605 L130.01911,34.3996851 C130.669522,34.8053631 131.371992,35.1469104 132.127164,35.4414478 C133.61662,36.0229777 135.260645,36.3772931 137.059882,36.3772931 L137.389586,36.3772931 C139.378741,36.3772931 141.255102,35.9553647 143.01899,35.0923557 C144.877677,34.1803055 146.332427,32.9330922 147.431443,31.3408493 C148.536243,29.7442537 149.144558,27.9802216 149.144558,26.0394671 L149.144558,25.9425454 C149.144558,24.033421 148.655143,22.2720005 147.627145,20.658284 L147.627145,20.658284 Z M141.830639,29.6461713 C140.542991,30.9383633 139.062854,31.7343396 137.389586,31.7343396 L137.113868,31.7343396 C136.158174,31.7343396 135.223368,31.4958079 134.308164,31.0619819 C133.276632,30.5843381 132.492538,29.9029847 131.850803,29.0402659 C131.187537,28.1935073 130.827626,27.2689792 130.827626,26.2887356 L130.827626,25.9910062 C130.827626,25.0273032 131.032325,24.1135119 131.548413,23.250503 C132.10017,22.3071129 132.84538,21.5735262 133.836423,20.9902552 C134.80947,20.4110468 135.848715,20.126956 137.006216,20.126956 L137.113868,20.126956 C138.163396,20.126956 139.15701,20.3138349 140.094708,20.7470805 C141.050081,21.2090544 141.830639,21.8402059 142.435741,22.670424 C143.023489,23.5009323 143.373118,24.3967321 143.48559,25.3726229 C143.503264,25.5754619 143.512262,25.7832341 143.512262,25.9817203 C143.512262,27.3061228 142.951828,28.532733 141.830639,29.6461713 Z" id="Shape"></path>
                        </g>
                    </g>
                </g>
            </g>
        </g>
    </g>
</svg>