<?xml version="1.0" encoding="UTF-8"?>
<svg width="13px" height="11px" viewBox="0 0 13 11" version="1.1" xmlns="http://www.w3.org/2000/svg" xmlns:xlink="http://www.w3.org/1999/xlink">
    <!-- Generator: Sketch 59.1 (86144) - https://sketch.com -->
    <title>”</title>
    <desc>Created with Sketch.</desc>
    <g id="Symbols" stroke="none" stroke-width="1" fill="none" fill-rule="evenodd">
        <g id="Testimonial" transform="translate(-394.000000, 9.000000)" fill="#F6F5FA" fill-rule="nonzero">
            <g id="Colons" transform="translate(382.000000, -21.000000)">
                <path d="M12.09,21.02 C12.9900045,20.5599977 13.6649978,20.0350029 14.115,19.445 C14.5650023,18.8549971 14.79,18.1100045 14.79,17.21 C14.7299997,17.2300001 14.6400006,17.24 14.52,17.24 C13.8799968,17.24 13.3350023,17.0450019 12.885,16.655 C12.4349978,16.264998 12.21,15.7300034 12.21,15.05 C12.21,14.2899962 12.4249979,13.6900022 12.855,13.25 C13.2850022,12.8099978 13.8399966,12.59 14.52,12.59 C15.4400046,12.59 16.1399976,12.9299966 16.62,13.61 C17.1000024,14.2900034 17.34,15.2599937 17.34,16.52 C17.34,17.9400071 16.9850035,19.1899946 16.275,20.27 C15.5649964,21.3500054 14.4900072,22.2399965 13.05,22.94 L12.09,21.02 Z M19.17,21.02 C20.0700045,20.5599977 20.7449977,20.0350029 21.195,19.445 C21.6450023,18.8549971 21.87,18.1100045 21.87,17.21 C21.8099997,17.2300001 21.7200006,17.24 21.6,17.24 C20.9599968,17.24 20.4150023,17.0450019 19.965,16.655 C19.5149977,16.264998 19.29,15.7300034 19.29,15.05 C19.29,14.2899962 19.5049979,13.6900022 19.935,13.25 C20.3650022,12.8099978 20.9199966,12.59 21.6,12.59 C22.5200046,12.59 23.2199976,12.9299966 23.7,13.61 C24.1800024,14.2900034 24.42,15.2599937 24.42,16.52 C24.42,17.9400071 24.0650036,19.1899946 23.355,20.27 C22.6449965,21.3500054 21.5700072,22.2399965 20.13,22.94 L19.17,21.02 Z" id="”"></path>
            </g>
        </g>
    </g>
</svg>